<?xml version="1.0" encoding="UTF-8"?>
<svg width="51px" height="53px" viewBox="0 0 51 53" version="1.1" xmlns="http://www.w3.org/2000/svg" xmlns:xlink="http://www.w3.org/1999/xlink">
    <!-- Generator: Sketch 55.2 (78181) - https://sketchapp.com -->
    <title>discover-icon</title>
    <desc>Created with Sketch.</desc>
    <g id="Landing-page" stroke="none" stroke-width="1" fill="none" fill-rule="evenodd">
        <g id="1024---Desktop---SportySpots-home" transform="translate(-195.000000, -745.000000)">
            <g id="Section-3" transform="translate(0.000000, 567.000000)">
                <g id="Item-1" transform="translate(116.000000, 170.000000)">
                    <g id="discover-icon" transform="translate(78.000000, 8.000000)">
                        <rect id="Rectangle" x="0" y="0" width="56" height="56"></rect>
                        <g id="Discover-icon" transform="translate(1.000000, 0.000000)">
                            <path d="M17.5555556,7.11111111 L36.6666667,7.11111111 C39.9803752,7.11111111 42.6666667,9.79740261 42.6666667,13.1111111 L42.6666667,44.6666667 C42.6666667,47.9803752 39.9803752,50.6666667 36.6666667,50.6666667 L17.5555556,50.6666667 C14.2418471,50.6666667 11.5555556,47.9803752 11.5555556,44.6666667 L11.5555556,13.1111111 C11.5555556,9.79740261 14.2418471,7.11111111 17.5555556,7.11111111 Z" id="Rectangle" fill="#005537" transform="translate(27.111111, 28.888889) rotate(45.000000) translate(-27.111111, -28.888889) "></path>
                            <g id="Group" transform="translate(0.888889, 0.000000)" fill="#009F36" fill-rule="nonzero">
                                <path d="M0.00213530317,28.2038771 C0.0707644198,27.8744965 0.124083964,27.5419385 0.209078486,27.2178534 C0.444529147,26.3234421 0.903816313,25.5518865 1.55368126,24.9000095 C5.1509028,21.2874137 8.75287559,17.6779953 12.3532646,14.0680473 C12.3976096,14.023565 12.4509291,13.9875556 12.4540966,13.9843783 C14.5003002,16.0369173 16.5343616,18.0772766 18.6048492,20.1547045 C17.2333227,21.9774184 16.6900969,24.1104492 17.1287953,26.4568889 C17.4508243,28.1795177 18.310272,29.6119527 19.615281,30.7812009 C22.0890967,32.9963121 26.2131787,33.5629314 29.5015692,31.0756312 C31.5414377,33.1218156 33.576555,35.1627045 35.6502102,37.2427801 C35.588444,37.3079149 35.4728303,37.4328889 35.3519375,37.5546856 C31.924705,40.9946478 28.4911375,44.4293144 25.0707679,47.8772199 C24.1110161,48.8452388 23.0388181,49.5596028 21.639312,49.6596879 C21.5801854,49.6639243 21.5236984,49.7089362 21.4666834,49.7343546 C21.2085323,49.7343546 20.9503813,49.7343546 20.6927581,49.7343546 C18.0505371,49.4965863 16.7381373,47.363026 14.961699,45.7362459 C16.6230515,44.0925201 18.2448103,42.4879811 19.7836863,40.9655225 C16.0819373,37.2528416 12.4245333,33.5841135 8.72436811,29.8719622 C7.17757341,31.4256643 5.57693124,33.0333806 4.00532447,34.6119716 C3.10047596,33.7360946 2.18137371,32.88087 1.30661644,31.9838109 C0.698984795,31.3605296 0.343697138,30.5794421 0.152063527,29.7289835 C0.0966323176,29.4800946 0.05228735,29.2290875 0.00213530317,28.9791395 C0.00213530317,28.7207187 0.00213530317,28.4622979 0.00213530317,28.2038771 Z" id="Shape"></path>
                                <path d="M28.8147501,0.0778439716 C29.0480891,0.122855792 29.2835398,0.161513002 29.515295,0.213938534 C30.3457074,0.401929078 31.1264955,0.729191489 31.7367668,1.32493617 C32.6490061,2.21352246 33.5084538,3.15612293 34.3842669,4.06959811 C32.8269139,5.62859574 31.2146576,7.24319622 29.6441066,8.81490307 C33.3801701,12.5620047 37.0328229,16.2254374 40.6955061,19.899461 C42.2375495,18.3441702 43.8434709,16.7242742 45.526468,15.0260047 C46.6160872,16.2026667 47.7431884,17.2167565 48.6195295,18.4146005 C49.9715231,20.2627329 49.7281536,22.8728889 48.2257039,24.6103452 C48.0462124,24.8173995 47.8551067,25.014922 47.6613614,25.2087376 C44.2436314,28.6386383 40.8253735,32.0669504 37.4081714,35.4968511 C37.284111,35.6223546 37.1790557,35.7674515 37.1130662,35.8452955 C35.0346598,33.7609835 33.00271,31.7227423 30.921664,29.635253 C32.296358,27.8014184 32.838528,25.6233759 32.3507334,23.2271584 C32.000197,21.5066478 31.1180489,20.0842742 29.7919232,18.9425626 C27.2753463,16.7777589 23.2235888,16.3038109 20.0212486,18.7259764 C17.9803243,16.6803215 15.9457349,14.6410213 13.8710239,12.5604161 C13.9185364,12.5106383 14.0325663,12.3840757 14.1518754,12.2633381 C17.60392,8.7995461 21.059132,5.33946099 24.5037858,1.86878487 C25.4424209,0.923536643 26.5067002,0.254713948 27.8660846,0.151451537 C27.9257391,0.146685579 27.9827541,0.103262411 28.0413528,0.0778439716 C28.298448,0.0778439716 28.557127,0.0778439716 28.8147501,0.0778439716 Z" id="Shape"></path>
                                <path d="M44.176586,13.9261277 C43.0294239,15.0768416 41.8352773,16.2752151 40.6596078,17.4555839 C37.839479,14.6267234 35.0061523,11.7840946 32.1807444,8.94993853 C33.3574697,7.7743357 34.5526722,6.57966903 35.7103926,5.42365957 C38.514156,8.23981087 41.3422035,11.079792 44.176586,13.9261277 Z" id="Shape"></path>
                                <path d="M21.2402073,20.0530307 C23.468014,18.2472624 27.1296414,18.5925296 29.1547282,20.7605106 C31.2917333,23.0486998 31.1270235,26.5882175 29.5770612,28.4156974 C26.803917,25.6344965 24.0302449,22.8517069 21.2402073,20.0530307 Z" id="Shape"></path>
                                <path d="M19.9156654,21.4070922 C22.6877538,24.187234 25.4630097,26.9689645 28.2345701,29.7491064 C26.5304564,31.2662695 22.9221486,31.510922 20.5972053,29.2989882 C18.2611757,27.0775225 18.2743737,23.4040284 19.9156654,21.4070922 Z" id="Shape"></path>
                                <path d="M8.86901717,32.3566147 C11.688618,35.1875934 14.5098026,38.0196312 17.3061752,40.8273097 C16.1210031,42.0145626 14.9194657,43.216643 13.7501311,44.388539 C10.9558702,41.5850969 8.12465522,38.7456454 5.30716602,35.9189031 C6.47174934,34.7528322 7.66642388,33.5581655 8.86901717,32.3566147 Z" id="Shape"></path>
                            </g>
                        </g>
                    </g>
                </g>
            </g>
        </g>
    </g>
</svg>