<?xml version="1.0" encoding="UTF-8"?>
<svg width="44px" height="43px" viewBox="0 0 44 43" version="1.1" xmlns="http://www.w3.org/2000/svg" xmlns:xlink="http://www.w3.org/1999/xlink">
    <!-- Generator: Sketch 56.2 (81672) - https://sketch.com -->
    <title>join-icon</title>
    <desc>Created with Sketch.</desc>
    <defs>
        <polygon id="path-1" points="0 0 40 0 40 40 0 40"></polygon>
    </defs>
    <g id="Landing-page" stroke="none" stroke-width="1" fill="none" fill-rule="evenodd">
        <g id="1024---Desktop---SportySpots-home" transform="translate(-490.000000, -752.000000)">
            <g id="Section-3" transform="translate(0.000000, 567.000000)">
                <g id="Item-2" transform="translate(401.000000, 170.000000)">
                    <g id="Join-activities-icon" transform="translate(89.000000, 15.000000)">
                        <g id="join-icon">
                            <circle id="Oval" fill-opacity="0.84" fill="#00353A" cx="23.6923077" cy="22.6923077" r="20"></circle>
                            <g id="Ball-01">
                                <mask id="mask-2" fill="white">
                                    <use xlink:href="#path-1"></use>
                                </mask>
                                <g id="Clip-2"></g>
                                <path d="M23.1235917,24.3010104 C19.1242179,28.6742324 17.6491449,34.4891961 18.6436038,39.9546467 C23.9457434,40.3109286 29.3672673,38.5682855 33.543256,34.7193333 L23.1235917,24.3010104 Z M18.0442208,19.2219934 C13.1790031,23.7293595 6.73471269,25.5809178 0.566113884,24.7957439 C1.40734239,28.2250341 3.17472226,31.467261 5.85409967,34.1470671 C8.53286171,36.8256424 11.7759299,38.5922838 15.2054592,39.434069 C14.4196151,33.2652847 16.2713024,26.8214434 20.779598,21.9571801 L18.0442208,19.2219934 Z M36.6694015,18.3100594 C32.7623351,18.3100594 28.8675763,19.5721219 25.598662,22.0605572 L35.8090961,32.2708951 C38.9075493,28.2865681 40.2847764,23.3859997 39.9512388,18.5968079 C38.8638571,18.398053 37.7703216,18.3100594 36.6694015,18.3100594 Z M5.28117814,6.45922482 C1.43134233,10.6355379 -0.311422219,16.0554534 0.0454998987,21.3572235 C5.51133136,22.3522284 11.3267004,20.8778736 15.7002271,16.8775477 L5.28117814,6.45922482 Z M24.7912796,0.572881614 C25.511893,6.21801151 24.0257432,12.0871252 20.3106762,16.7735552 L23.2282068,19.6908826 C27.152504,16.5821845 31.9100297,15.0284508 36.6694015,15.0284508 C37.5930913,15.0284508 38.5118581,15.0942922 39.4300094,15.2105914 C38.5881656,11.7819165 36.8214011,8.53907429 34.142639,5.85988358 C31.4626462,3.18130821 28.2208088,1.4140515 24.7912796,0.572881614 Z M19.9980617,0 C15.6633041,0 11.3273157,1.39374528 7.72978694,4.1929273 L17.940221,14.4038806 C21.1260586,10.215876 22.2454402,4.98856203 21.3525196,0.0523039068 C20.90329,0.0209215627 20.4479066,0 19.9980617,0 L19.9980617,0 Z" id="Fill-1" fill="#009F36" mask="url(#mask-2)"></path>
                            </g>
                        </g>
                    </g>
                </g>
            </g>
        </g>
    </g>
</svg>