<?xml version="1.0" encoding="UTF-8"?>
<svg width="53px" height="51px" viewBox="0 0 53 51" version="1.1" xmlns="http://www.w3.org/2000/svg" xmlns:xlink="http://www.w3.org/1999/xlink">
    <!-- Generator: Sketch 56.2 (81672) - https://sketch.com -->
    <title>organise icon</title>
    <desc>Created with Sketch.</desc>
    <g id="Landing-page" stroke="none" stroke-width="1" fill="none" fill-rule="evenodd">
        <g id="1024---Desktop---SportySpots-home" transform="translate(-772.000000, -749.000000)">
            <g id="Section-3" transform="translate(0.000000, 567.000000)">
                <g id="Item-3" transform="translate(688.000000, 170.000000)">
                    <g id="organise-icon" transform="translate(75.000000, 7.000000)">
                        <g transform="translate(34.793834, 32.268110) rotate(24.000000) translate(-34.793834, -32.268110) translate(7.293834, 10.768110)">
                            <path d="M34.8034398,41.9189189 C40.7700553,41.9189189 48.3897961,34.2578386 51.4990548,29.7079194 C53.3679705,26.9730504 54.4594595,23.6748781 54.4594595,20.1243243 C54.4594595,10.6668211 46.7151957,3 37.1621622,3 C27.6091287,3 19.8648649,10.6668211 19.8648649,20.1243243 C19.8648649,29.5818275 25.2504063,41.9189189 34.8034398,41.9189189 Z" id="Oval-Copy" fill="#005537"></path>
                            <path d="M7.32649031,0.964992196 L38.2432432,3 L38.2432432,9.01524602 C16.4706421,8.64491126 4.61841569,8.71856293 2.68656403,9.23620102 C-0.211213445,10.0126582 0.944181072,6.59724259 0.944181072,6.59724259 C2.69724742,4.85971876 4.45031376,3.12219493 6.20338011,1.3846711 C6.50034071,1.09034332 6.90928494,0.937530833 7.32649031,0.964992196 Z" id="Rectangle" fill="#005537"></path>
                            <path d="M31.7567568,43 C41.3097903,43 49.0540541,35.2557362 49.0540541,25.7027027 C49.0540541,16.1496692 40.012285,8.40540541 31.7567568,8.40540541 C23.5012285,8.40540541 14.4594595,16.1496692 14.4594595,25.7027027 C14.4594595,35.2557362 22.2037232,43 31.7567568,43 Z" id="Oval" fill="#009F36"></path>
                            <path d="M2.06051073,7.10685125 L23.8653689,8.40540541 L31.66682,8.40540541 L34.9785783,23.8639248 C35.1474081,24.651983 34.6454243,25.4276939 33.8573661,25.5965237 C33.7378639,25.6221253 33.615619,25.6326134 33.4935024,25.6277416 L1.91558874,24.3679728 C1.13290163,24.3367483 0.514475707,23.693159 0.514475707,22.9098493 L0.514475707,8.56355375 C0.514475707,7.75761379 1.16781913,7.10427036 1.9737591,7.10427036 C2.0026955,7.10427036 2.0316255,7.10513104 2.06051073,7.10685125 Z" id="Rectangle" fill="#009F36"></path>
                            <circle id="Oval" fill-opacity="0.84" fill="#00353A" cx="31.0701679" cy="25.7779547" r="5.94594595"></circle>
                        </g>
                    </g>
                </g>
            </g>
        </g>
    </g>
</svg>