<?xml version="1.0" encoding="UTF-8"?>
<svg width="183px" height="32px" viewBox="0 0 183 32" version="1.1" xmlns="http://www.w3.org/2000/svg" xmlns:xlink="http://www.w3.org/1999/xlink">
    <!-- Generator: Sketch 55.2 (78181) - https://sketchapp.com -->
    <title>Logo</title>
    <desc>Created with Sketch.</desc>
    <g id="Landing-page" stroke="none" stroke-width="1" fill="none" fill-rule="evenodd">
        <g id="1024---Desktop---SportySpots-home" transform="translate(-45.000000, -16.000000)">
            <g id="Navheader">
                <g id="Logo" transform="translate(45.000000, 16.000000)">
                    <g>
                        <path d="M1,0 L31,0 C31.5522847,0 32,0.44771525 32,1 L32,31 C32,31.5522847 31.5522847,32 31,32 L1,32 C0.44771525,32 0,31.5522847 0,31 L0,1 C0,0.44771525 0.44771525,0 1,0 Z" id="Rectangle-6" fill="#07D654"></path>
                        <polygon id="Rectangle" fill="#FFFFFF" points="5.66666667 4.45833333 26.2916667 4.45833333 26.2916667 27.5 5.66666667 27.5"></polygon>
                        <g id="Group">
                            <polygon id="Rectangle-3-Copy-5" fill="#248232" points="0 18.2083333 21.4583333 18.2083333 21.4583333 22.6666667 0 22.6666667"></polygon>
                            <polygon id="Rectangle-3-Copy-4" fill="#248232" points="10.5208333 8.89583333 31.9791667 8.89583333 31.9791667 13.3541667 10.5208333 13.3541667"></polygon>
                            <polygon id="Rectangle-2" fill="#2BA84A" points="0 4.45833333 5.66666667 4.45833333 5.66666667 27.5 0 27.5"></polygon>
                            <polygon id="Rectangle-2-Copy-2" fill="#2BA84A" points="26.3125 4.45833333 32 4.45833333 32 27.5 26.3125 27.5"></polygon>
                            <polygon id="Rectangle-3-Copy-2" points="0 27.5416667 31.9375 27.5416667 31.9375 32 0 32"></polygon>
                            <polygon id="Rectangle-3-Copy" fill="#248232" points="5.66666667 0 26.2916667 0 26.2916667 4.45833333 5.66666667 4.45833333"></polygon>
                            <polygon id="Rectangle-3-Copy-3" fill="#248232" points="5.66666667 27.5 26.2916667 27.5 26.2916667 32 5.66666667 32"></polygon>
                        </g>
                    </g>
                    <path d="M41.1680105,18.7762719 L41.1680105,18.2786048 C41.1680105,17.930236 41.3440826,17.7560542 41.6962321,17.7560542 L43.8342715,17.7560542 C44.186421,17.7560542 44.362493,17.930236 44.362493,18.2786048 L44.362493,18.4776716 C44.362493,19.1080532 44.4882588,19.5393605 44.7397941,19.7716063 C44.9913294,20.0038522 45.4524706,20.1199733 46.1232314,20.1199733 L47.3054415,20.1199733 C47.9594333,20.1199733 48.4163822,19.9955578 48.676302,19.746723 C48.9362219,19.4978881 49.0661798,19.0334034 49.0661798,18.3532548 L49.0661798,18.0546545 C49.0661798,17.5735738 48.8691468,17.2044744 48.4750748,16.947345 C48.0810028,16.6902157 47.5905163,16.5367699 47.0036006,16.4870029 C46.4166849,16.4372359 45.7836638,16.3418507 45.1045185,16.2008443 C44.4253731,16.0598378 43.7923521,15.8773617 43.2054364,15.6534104 C42.6185207,15.429459 42.1280342,14.9898574 41.7339622,14.3345923 C41.3398902,13.6793272 41.1428571,12.8374487 41.1428571,11.8089313 L41.1428571,10.9380138 C41.1428571,9.64407262 41.5117701,8.64045384 42.249607,7.92712731 C42.9874439,7.21380077 44.0103388,6.85714286 45.3183224,6.85714286 L47.833663,6.85714286 C49.1584156,6.85714286 50.1896949,7.21380077 50.9275318,7.92712731 C51.6653687,8.64045384 52.0342817,9.64407262 52.0342817,10.9380138 L52.0342817,11.4107976 C52.0342817,11.7591664 51.8582096,11.9333481 51.5060601,11.9333481 L49.3680207,11.9333481 C49.0158713,11.9333481 48.8397992,11.7591664 48.8397992,11.4107976 L48.8397992,11.2614974 C48.8397992,10.6145269 48.7140334,10.1749253 48.4624981,9.9426794 C48.2109628,9.71043356 47.7498216,9.59431238 47.0790608,9.59431238 L46.098078,9.59431238 C45.4105481,9.59431238 44.9452148,9.72287511 44.702064,9.98000444 C44.4589132,10.2371338 44.3373396,10.7389432 44.3373396,11.4854477 L44.3373396,11.9582315 C44.3373396,12.737914 45.0248592,13.18581 46.3999189,13.3019329 C47.8252856,13.4180558 49.0913277,13.7000644 50.1980831,14.1479671 C50.7849988,14.396802 51.2754853,14.8405508 51.6695573,15.4792268 C52.0636293,16.1179029 52.2606623,16.9348984 52.2606623,17.9302377 L52.2606623,18.7762719 C52.2606623,20.0702131 51.8917494,21.0738319 51.1539125,21.7871584 C50.4160756,22.5004849 49.3931806,22.8571429 48.085197,22.8571429 L45.3434758,22.8571429 C44.0354922,22.8571429 43.0125973,22.5004849 42.2747604,21.7871584 C41.5369235,21.0738319 41.1680105,20.0702131 41.1680105,18.7762719 Z M57.7944115,22.8571429 L55.656372,22.8571429 C55.3042226,22.8571429 55.1281505,22.6829611 55.1281505,22.3345923 L55.1281505,7.3796934 C55.1281505,7.03132463 55.3042226,6.85714286 55.656372,6.85714286 L61.7938029,6.85714286 C63.1017865,6.85714286 64.1162971,7.20965359 64.837365,7.91468563 C65.5584329,8.61971766 65.9189614,9.61918926 65.9189614,10.9131304 L65.9189614,13.3019329 C65.9189614,14.5958741 65.5584329,15.5953457 64.837365,16.3003777 C64.1162971,17.0054097 63.1017865,17.3579205 61.7938029,17.3579205 L58.6244739,17.3579205 C58.4232456,17.3579205 58.322633,17.4491585 58.322633,17.6316374 L58.322633,22.3345923 C58.322633,22.6829611 58.1465609,22.8571429 57.7944115,22.8571429 Z M58.5993205,14.5958676 L61.2655814,14.5958676 C61.8021901,14.5958676 62.1794874,14.4838936 62.3974847,14.2599422 C62.6154819,14.0359909 62.7244789,13.6668914 62.7244789,13.1526327 L62.7244789,11.0624306 C62.7244789,10.5315829 62.6154819,10.1541891 62.3974847,9.93023772 C62.1794874,9.70628637 61.8021901,9.59431238 61.2655814,9.59431238 L58.5993205,9.59431238 C58.4148612,9.59431238 58.322633,9.68555045 58.322633,9.86802933 L58.322633,14.3221506 C58.322633,14.5046295 58.4148612,14.5958676 58.5993205,14.5958676 Z M72.8613013,20.1199733 L74.6471931,20.1199733 C75.1838017,20.1199733 75.5652912,20.0079993 75.791673,19.784048 C76.0180548,19.5600966 76.131244,19.1827028 76.131244,18.6518551 L76.131244,11.0624306 C76.131244,10.5315829 76.0180548,10.1541891 75.791673,9.93023772 C75.5652912,9.70628637 75.1838017,9.59431238 74.6471931,9.59431238 L72.8613013,9.59431238 C72.3246926,9.59431238 71.9473953,9.70628637 71.729398,9.93023772 C71.5114008,10.1541891 71.4024038,10.5315829 71.4024038,11.0624306 L71.4024038,18.6518551 C71.4024038,19.1827028 71.5114008,19.5600966 71.729398,19.784048 C71.9473953,20.0079993 72.3246926,20.1199733 72.8613013,20.1199733 Z M75.1754146,22.8571429 L72.3582332,22.8571429 C71.0334805,22.8571429 70.0105856,22.5087793 69.2895177,21.8120418 C68.5684498,21.1153042 68.2079213,20.1116854 68.2079213,18.8011553 L68.2079213,10.9131304 C68.2079213,9.60260028 68.5684498,8.59898149 69.2895177,7.90224395 C70.0105856,7.2055064 71.0334805,6.85714286 72.3582332,6.85714286 L75.1754146,6.85714286 C76.5001672,6.85714286 77.5230621,7.2055064 78.24413,7.90224395 C78.9651979,8.59898149 79.3257265,9.60260028 79.3257265,10.9131304 L79.3257265,18.8011553 C79.3257265,20.1116854 78.9651979,21.1153042 78.24413,21.8120418 C77.5230621,22.5087793 76.5001672,22.8571429 75.1754146,22.8571429 Z M85.0103961,22.8571429 L82.8723566,22.8571429 C82.5202072,22.8571429 82.3441351,22.6829611 82.3441351,22.3345923 L82.3441351,7.3796934 C82.3441351,7.03132463 82.5202072,6.85714286 82.8723566,6.85714286 L88.8588671,6.85714286 C90.1668507,6.85714286 91.1897456,7.21380077 91.9275825,7.92712731 C92.6654194,8.64045384 93.0343324,9.64407262 93.0343324,10.9380138 L93.0343324,12.8789158 C93.0343324,14.7534716 92.2881221,15.9976271 90.7956793,16.6114197 L90.7956793,16.7109531 L93.4870937,22.2599422 C93.6380149,22.658078 93.4954803,22.8571429 93.0594858,22.8571429 L91.0220599,22.8571429 C90.7202176,22.8571429 90.5022236,22.8239654 90.3680714,22.7576094 C90.2339192,22.6912535 90.1249222,22.5502492 90.0410771,22.3345923 L87.5257366,16.9597867 L85.8404584,16.9597867 C85.6392302,16.9597867 85.5386176,17.0510248 85.5386176,17.2335037 L85.5386176,22.3345923 C85.5386176,22.6829611 85.3625455,22.8571429 85.0103961,22.8571429 Z M85.815305,14.4216841 L88.2803388,14.4216841 C88.8169474,14.4216841 89.2110135,14.3097101 89.4625488,14.0857587 C89.7140841,13.8618074 89.8398499,13.5010023 89.8398499,13.0033326 L89.8398499,11.0624306 C89.8398499,10.5481719 89.7140841,10.1749253 89.4625488,9.9426794 C89.2110135,9.71043356 88.8169474,9.59431238 88.2803388,9.59431238 L85.815305,9.59431238 C85.6308458,9.59431238 85.5386176,9.68555045 85.5386176,9.86802933 L85.5386176,14.1479671 C85.5386176,14.330446 85.6308458,14.4216841 85.815305,14.4216841 Z M101.108575,22.8571429 L98.9956894,22.8571429 C98.626771,22.8571429 98.4423145,22.6829611 98.4423145,22.3345923 L98.4423145,9.86802933 C98.4423145,9.68555045 98.3500863,9.59431238 98.1656271,9.59431238 L95.2981389,9.59431238 C94.9459894,9.59431238 94.7699173,9.4201306 94.7699173,9.07176183 L94.7699173,7.3796934 C94.7699173,7.03132463 94.9459894,6.85714286 95.2981389,6.85714286 L104.806126,6.85714286 C105.158276,6.85714286 105.334348,7.03132463 105.334348,7.3796934 L105.334348,9.07176183 C105.334348,9.4201306 105.158276,9.59431238 104.806126,9.59431238 L101.938638,9.59431238 C101.73741,9.59431238 101.636797,9.68555045 101.636797,9.86802933 L101.636797,22.3345923 C101.636797,22.6829611 101.460725,22.8571429 101.108575,22.8571429 Z M113.18221,22.8571429 L111.044171,22.8571429 C110.692021,22.8571429 110.515949,22.6829611 110.515949,22.3345923 L110.515949,17.0095534 L105.912876,7.40457676 C105.8458,7.25527586 105.849992,7.12671312 105.925453,7.01888469 C106.000913,6.91105626 106.114102,6.85714286 106.265024,6.85714286 L108.931285,6.85714286 C109.199589,6.85714286 109.400814,7.03132463 109.534966,7.3796934 L112.050307,13.4263497 L112.226381,13.4263497 L114.691414,7.3796934 C114.808798,7.03132463 115.010023,6.85714286 115.295096,6.85714286 L117.961357,6.85714286 C118.129047,6.85714286 118.250621,6.90690908 118.326081,7.00644301 C118.401542,7.10597695 118.39735,7.23868687 118.313505,7.40457676 L113.710432,17.0095534 L113.710432,22.3345923 C113.710432,22.6829611 113.534359,22.8571429 113.18221,22.8571429 Z M119.847862,18.7762719 L119.847862,18.2786048 C119.847862,17.930236 120.023935,17.7560542 120.376084,17.7560542 L122.514123,17.7560542 C122.866273,17.7560542 123.042345,17.930236 123.042345,18.2786048 L123.042345,18.4776716 C123.042345,19.1080532 123.168111,19.5393605 123.419646,19.7716063 C123.671181,20.0038522 124.132322,20.1199733 124.803083,20.1199733 L125.985293,20.1199733 C126.639285,20.1199733 127.096234,19.9955578 127.356154,19.746723 C127.616074,19.4978881 127.746032,19.0334034 127.746032,18.3532548 L127.746032,18.0546545 C127.746032,17.5735738 127.548999,17.2044744 127.154927,16.947345 C126.760855,16.6902157 126.270368,16.5367699 125.683453,16.4870029 C125.096537,16.4372359 124.463516,16.3418507 123.78437,16.2008443 C123.105225,16.0598378 122.472204,15.8773617 121.885288,15.6534104 C121.298373,15.429459 120.807886,14.9898574 120.413814,14.3345923 C120.019742,13.6793272 119.822709,12.8374487 119.822709,11.8089313 L119.822709,10.9380138 C119.822709,9.64407262 120.191622,8.64045384 120.929459,7.92712731 C121.667296,7.21380077 122.690191,6.85714286 123.998174,6.85714286 L126.513515,6.85714286 C127.838268,6.85714286 128.869547,7.21380077 129.607384,7.92712731 C130.345221,8.64045384 130.714134,9.64407262 130.714134,10.9380138 L130.714134,11.4107976 C130.714134,11.7591664 130.538062,11.9333481 130.185912,11.9333481 L128.047873,11.9333481 C127.695723,11.9333481 127.519651,11.7591664 127.519651,11.4107976 L127.519651,11.2614974 C127.519651,10.6145269 127.393885,10.1749253 127.14235,9.9426794 C126.890815,9.71043356 126.429674,9.59431238 125.758913,9.59431238 L124.77793,9.59431238 C124.0904,9.59431238 123.625067,9.72287511 123.381916,9.98000444 C123.138765,10.2371338 123.017192,10.7389432 123.017192,11.4854477 L123.017192,11.9582315 C123.017192,12.737914 123.704711,13.18581 125.079771,13.3019329 C126.505138,13.4180558 127.77118,13.7000644 128.877935,14.1479671 C129.464851,14.396802 129.955337,14.8405508 130.349409,15.4792268 C130.743481,16.1179029 130.940514,16.9348984 130.940514,17.9302377 L130.940514,18.7762719 C130.940514,20.0702131 130.571601,21.0738319 129.833764,21.7871584 C129.095927,22.5004849 128.073033,22.8571429 126.765049,22.8571429 L124.023328,22.8571429 C122.715344,22.8571429 121.692449,22.5004849 120.954612,21.7871584 C120.216775,21.0738319 119.847862,20.0702131 119.847862,18.7762719 Z M136.474263,22.8571429 L134.336224,22.8571429 C133.984075,22.8571429 133.808002,22.6829611 133.808002,22.3345923 L133.808002,7.3796934 C133.808002,7.03132463 133.984075,6.85714286 134.336224,6.85714286 L140.473655,6.85714286 C141.781638,6.85714286 142.796149,7.20965359 143.517217,7.91468563 C144.238285,8.61971766 144.598813,9.61918926 144.598813,10.9131304 L144.598813,13.3019329 C144.598813,14.5958741 144.238285,15.5953457 143.517217,16.3003777 C142.796149,17.0054097 141.781638,17.3579205 140.473655,17.3579205 L137.304326,17.3579205 C137.103098,17.3579205 137.002485,17.4491585 137.002485,17.6316374 L137.002485,22.3345923 C137.002485,22.6829611 136.826413,22.8571429 136.474263,22.8571429 Z M137.279172,14.5958676 L139.945433,14.5958676 C140.482042,14.5958676 140.859339,14.4838936 141.077337,14.2599422 C141.295334,14.0359909 141.404331,13.6668914 141.404331,13.1526327 L141.404331,11.0624306 C141.404331,10.5315829 141.295334,10.1541891 141.077337,9.93023772 C140.859339,9.70628637 140.482042,9.59431238 139.945433,9.59431238 L137.279172,9.59431238 C137.094713,9.59431238 137.002485,9.68555045 137.002485,9.86802933 L137.002485,14.3221506 C137.002485,14.5046295 137.094713,14.5958676 137.279172,14.5958676 Z M151.541153,20.1199733 L153.327045,20.1199733 C153.863654,20.1199733 154.245143,20.0079993 154.471525,19.784048 C154.697907,19.5600966 154.811096,19.1827028 154.811096,18.6518551 L154.811096,11.0624306 C154.811096,10.5315829 154.697907,10.1541891 154.471525,9.93023772 C154.245143,9.70628637 153.863654,9.59431238 153.327045,9.59431238 L151.541153,9.59431238 C151.004545,9.59431238 150.627247,9.70628637 150.40925,9.93023772 C150.191253,10.1541891 150.082256,10.5315829 150.082256,11.0624306 L150.082256,18.6518551 C150.082256,19.1827028 150.191253,19.5600966 150.40925,19.784048 C150.627247,20.0079993 151.004545,20.1199733 151.541153,20.1199733 Z M153.855266,22.8571429 L151.038085,22.8571429 C149.713332,22.8571429 148.690438,22.5087793 147.96937,21.8120418 C147.248302,21.1153042 146.887773,20.1116854 146.887773,18.8011553 L146.887773,10.9131304 C146.887773,9.60260028 147.248302,8.59898149 147.96937,7.90224395 C148.690438,7.2055064 149.713332,6.85714286 151.038085,6.85714286 L153.855266,6.85714286 C155.180019,6.85714286 156.202914,7.2055064 156.923982,7.90224395 C157.64505,8.59898149 158.005578,9.60260028 158.005578,10.9131304 L158.005578,18.8011553 C158.005578,20.1116854 157.64505,21.1153042 156.923982,21.8120418 C156.202914,22.5087793 155.180019,22.8571429 153.855266,22.8571429 Z M166.029515,22.8571429 L163.916629,22.8571429 C163.54771,22.8571429 163.363254,22.6829611 163.363254,22.3345923 L163.363254,9.86802933 C163.363254,9.68555045 163.271025,9.59431238 163.086566,9.59431238 L160.219078,9.59431238 C159.866929,9.59431238 159.690857,9.4201306 159.690857,9.07176183 L159.690857,7.3796934 C159.690857,7.03132463 159.866929,6.85714286 160.219078,6.85714286 L169.727065,6.85714286 C170.079215,6.85714286 170.255287,7.03132463 170.255287,7.3796934 L170.255287,9.07176183 C170.255287,9.4201306 170.079215,9.59431238 169.727065,9.59431238 L166.859577,9.59431238 C166.658349,9.59431238 166.557736,9.68555045 166.557736,9.86802933 L166.557736,22.3345923 C166.557736,22.6829611 166.381664,22.8571429 166.029515,22.8571429 Z M171.764491,18.7762719 L171.764491,18.2786048 C171.764491,17.930236 171.940563,17.7560542 172.292713,17.7560542 L174.430752,17.7560542 C174.782902,17.7560542 174.958974,17.930236 174.958974,18.2786048 L174.958974,18.4776716 C174.958974,19.1080532 175.084739,19.5393605 175.336275,19.7716063 C175.58781,20.0038522 176.048951,20.1199733 176.719712,20.1199733 L177.901922,20.1199733 C178.555914,20.1199733 179.012863,19.9955578 179.272783,19.746723 C179.532702,19.4978881 179.66266,19.0334034 179.66266,18.3532548 L179.66266,18.0546545 C179.66266,17.5735738 179.465627,17.2044744 179.071555,16.947345 C178.677483,16.6902157 178.186997,16.5367699 177.600081,16.4870029 C177.013165,16.4372359 176.380144,16.3418507 175.700999,16.2008443 C175.021854,16.0598378 174.388833,15.8773617 173.801917,15.6534104 C173.215001,15.429459 172.724515,14.9898574 172.330443,14.3345923 C171.936371,13.6793272 171.739338,12.8374487 171.739338,11.8089313 L171.739338,10.9380138 C171.739338,9.64407262 172.108251,8.64045384 172.846088,7.92712731 C173.583924,7.21380077 174.606819,6.85714286 175.914803,6.85714286 L178.430144,6.85714286 C179.754896,6.85714286 180.786175,7.21380077 181.524012,7.92712731 C182.261849,8.64045384 182.630762,9.64407262 182.630762,10.9380138 L182.630762,11.4107976 C182.630762,11.7591664 182.45469,11.9333481 182.102541,11.9333481 L179.964501,11.9333481 C179.612352,11.9333481 179.43628,11.7591664 179.43628,11.4107976 L179.43628,11.2614974 C179.43628,10.6145269 179.310514,10.1749253 179.058979,9.9426794 C178.807443,9.71043356 178.346302,9.59431238 177.675541,9.59431238 L176.694559,9.59431238 C176.007029,9.59431238 175.541695,9.72287511 175.298545,9.98000444 C175.055394,10.2371338 174.93382,10.7389432 174.93382,11.4854477 L174.93382,11.9582315 C174.93382,12.737914 175.62134,13.18581 176.996399,13.3019329 C178.421766,13.4180558 179.687808,13.7000644 180.794564,14.1479671 C181.381479,14.396802 181.871966,14.8405508 182.266038,15.4792268 C182.66011,16.1179029 182.857143,16.9348984 182.857143,17.9302377 L182.857143,18.7762719 C182.857143,20.0702131 182.48823,21.0738319 181.750393,21.7871584 C181.012556,22.5004849 179.989661,22.8571429 178.681678,22.8571429 L175.939956,22.8571429 C174.631973,22.8571429 173.609078,22.5004849 172.871241,21.7871584 C172.133404,21.0738319 171.764491,20.0702131 171.764491,18.7762719 Z" id="SPORTYSPOTS" fill="#000000"></path>
                </g>
            </g>
        </g>
    </g>
</svg>