<?xml version="1.0" encoding="UTF-8"?>
<svg width="963px" height="276px" viewBox="0 0 963 276" version="1.1" xmlns="http://www.w3.org/2000/svg" xmlns:xlink="http://www.w3.org/1999/xlink">
    <!-- Generator: Sketch 55.2 (78181) - https://sketchapp.com -->
    <title>Illustration Wizard 1</title>
    <desc>Created with Sketch.</desc>
    <g id="Landing-page" stroke="none" stroke-width="1" fill="none" fill-rule="evenodd">
        <g id="1024---Desktop---SportySpots-home" transform="translate(-30.000000, -288.000000)">
            <g id="Section-1" transform="translate(0.000000, 64.000000)">
                <g id="Illustration-Wizard-1" transform="translate(30.000000, 224.000000)">
                    <path d="M0,177 C138.865204,177 159.996865,57 253.835769,57 C325.158703,57 377.351097,174 507.159875,177 L0,177 Z" id="Mountain-2" fill-opacity="0.4" fill="#00353A" opacity="0.719999969"></path>
                    <path d="M380.369906,246 C478.044587,246 519.339979,177 591.68652,177 C653.185393,177 703.382445,237 818.097179,246 L380.369906,246 Z" id="Mountain-Shadow" fill="#000000" opacity="0.119999997" transform="translate(599.233542, 211.500000) scale(1, -1) translate(-599.233542, -211.500000) "></path>
                    <path d="M232.448276,177 C395.46395,177 476.980255,-8.15805756e-14 597.724138,-8.52651283e-14 C700.363636,-8.52651283e-14 784.890282,177 963,177 L232.448276,177 Z" id="Mountain" fill-opacity="0.84" fill="#00353A" opacity="0.719999969"></path>
                    <g id="Tree-1" transform="translate(754.401254, 138.000000)">
                        <rect id="Rectangle-3" fill="#333333" x="15.0940439" y="30" width="3.01880878" height="12"></rect>
                        <ellipse id="Oval-3" fill="#009F36" cx="16.6034483" cy="16.5" rx="16.6034483" ry="16.5"></ellipse>
                        <ellipse id="Oval-3-Copy-2" fill="#009F36" opacity="0.159999996" cx="16.5" cy="16.3971963" rx="16.5" ry="16.3971963"></ellipse>
                    </g>
                    <g id="Tree-1" transform="translate(99.620690, 135.000000)">
                        <rect id="Rectangle-3" fill="#333333" x="15.0940439" y="30" width="3.01880878" height="21"></rect>
                        <ellipse id="Oval-3" fill="#009F36" cx="16.6034483" cy="16.5" rx="16.6034483" ry="16.5"></ellipse>
                        <path d="M16.6034483,33 C25.7732796,33 33.2068966,27 33.2068966,15 C27.169279,27 6.03761755,27 0,15 C0,27 7.433617,33 16.6034483,33 Z" id="Oval-3-Copy" fill="#009F36" opacity="0.159999996"></path>
                    </g>
                    <g id="boybasketball" transform="translate(448.800000, 144.000000) scale(-1, 1) translate(-448.800000, -144.000000) translate(319.800000, 12.000000)">
                        <path d="M89.7261003,44.6590888 C87.7738276,62.32263 85.1156734,74.9989379 81.7516377,82.6880125 C78.3876021,90.3770872 70.9830604,100.700779 59.5380126,113.659089" id="Line-Copy-2" stroke="#F0D0B4" stroke-width="6.08256" stroke-linecap="round" transform="translate(74.540809, 79.154529) rotate(32.000000) translate(-74.540809, -79.154529) "></path>
                        <g id="Legs-Copy" transform="translate(75.470219, 138.000000)" stroke-linecap="round" stroke-width="6.08256">
                            <path d="M18.5360798,0 C-1.47607072,27.30614 -5.28389812,46.1106809 7.11259757,56.4136227 C19.5090933,66.7165646 39.2761584,64.9319878 66.4137931,51.0598923" id="Line-Copy" stroke="#E9BF9A"></path>
                            <path d="M37.0391001,0 C27.904417,35.3120614 27.904417,57.7158898 37.0391001,67.2114853 C46.1737833,76.7070808 72.0656611,83.3032523 114.714734,87" id="Line" stroke="#F0D0B4"></path>
                        </g>
                        <g id="Shoes-Copy" transform="translate(138.846395, 180.000000)" stroke="#009F36" stroke-linecap="round" stroke-width="6.46272">
                            <path d="M55.8437896,57.8164305 C51.9151873,55.581302 49.275321,53.5483676 47.9241906,51.7176272 C46.5730603,49.8868868 47.1009438,46.023212 49.5078411,40.1266028" id="Line-Copy-4" transform="translate(51.695529, 49.126603) scale(-1, -1) rotate(-33.000000) translate(-51.695529, -49.126603) "></path>
                            <path d="M15.4663951,20.9139003 C10.8798333,19.092881 8.04061303,17.0243013 6.94873426,14.708161 C5.85685549,12.3920208 6.42460299,8.46060061 8.65197675,2.91390035" id="Line-Copy-7" transform="translate(10.998266, 12.071706) rotate(126.000000) translate(-10.998266, -12.071706) "></path>
                        </g>
                        <g id="Ball-Copy" transform="translate(7.056426, 21.000000)" fill="#F5A623">
                            <circle id="Oval-10" cx="24.6961221" cy="24" r="24"></circle>
                        </g>
                        <g id="Shadows-Copy" transform="translate(0.000000, 249.000000)" fill="#000000" fill-opacity="0.3">
                            <ellipse id="Oval-6" opacity="0.9" cx="152.989074" cy="7.5" rx="104.148903" ry="7.5"></ellipse>
                            <ellipse id="Ovalshadow1" cx="19.7946341" cy="10.5" rx="19.6222571" ry="4.5"></ellipse>
                        </g>
                        <g id="Head-Copy" transform="translate(96.583072, 0.000000)">
                            <path d="M12.2988394,36.0399094 C19.6882706,44.8170782 20.2947664,49.8170782 14.1183266,51.0399094" id="Line-Copy-3" stroke="#F0D0B4" stroke-width="6.84288" stroke-linecap="round" transform="translate(14.731591, 44.208418) rotate(32.000000) translate(-14.731591, -44.208418) "></path>
                            <path d="M20.3076315,45 C20.7870417,45 21.3195304,34.8639224 21.0992459,34.0909399 C21.0037403,33.7558092 20.3468541,33.5968384 19.9669958,33.4215996 C19.4707068,33.1926484 19.2234033,33 19.0489322,33 C18.569522,33 18.6678892,39.6264686 18.3507066,41.183066 C18.2115025,41.8662208 18.049106,42.670521 18.1796117,43.1548238 C18.5323171,44.4637033 20.0325216,45 20.3076315,45 Z" id="Oval-7" fill="#DDBEA4"></path>
                            <ellipse id="Oval-2" fill="#F0D0B4" cx="19.042166" cy="18" rx="18.1128527" ry="18"></ellipse>
                            <path d="M18.5612926,35.8004014 C25.6588712,35.8004014 31.7849017,31.4273886 34.6344947,25.3182863 C34.7461911,25.0788258 40.930332,31.2227025 45.2571164,40.7035271 C49.1244024,49.1775015 51.1418559,60.9281683 51.8861964,63.3680055 C53.4633177,68.5375736 58.2692899,61.6130095 58.1725204,60.2580439 C58.0757509,58.9030783 51.8861964,44.7126398 51.8861964,42.5546772 C51.8861964,41.552967 62.5508511,68.2273089 69.16066,75.6236179 C71.3584204,78.0828894 73.4373675,78.7623014 74.9934231,78.7600035 C75.6995131,78.7589608 68.5961615,69.1776459 69.16066,68.889894 C69.7724741,68.578023 75.8691227,78.4097624 77.0174569,78.7600035 C77.3040237,78.8474062 81.8546499,82.1303984 81.644664,80.1597432 C81.1272712,75.3041637 70.1820145,63.7653966 70.5217119,63.3680055 C70.8200402,63.0190098 84.0404872,79.7609899 85.1110066,80.5759216 C88.477868,83.1389412 93.1402895,73.4340933 88.8491902,68.889894 C84.5580908,64.3456947 73.8876337,61.7383467 62.5670375,49.7478856 C56.9755348,43.8255212 54.2991611,32.5042908 50.0224602,27.2742474 C41.8396068,17.2673099 36.3373325,18.2479462 36.3373325,17.6786542 C36.3373325,7.92365051 28.3787284,0.0156575574 18.5612926,0.0156575574 C8.74385694,0.0156575574 22.9506389,-0.780131653 22.9506389,8.97487202 C22.9506389,14.2964812 28.9120785,10.6489171 28.714703,15.2087413 C28.675212,16.1210735 27.06742,18.9369964 25.4347338,19.5691896 C23.8831873,20.1699645 19.9547608,21.9462215 18.5612926,23.7679253 C15.3155703,28.0111113 16.1894007,35.8004014 18.5612926,35.8004014 Z" id="Oval-2-Copy-2" fill="#FF8D29"></path>
                            <path d="M29.1752597,21.2229157 C29.4337691,21.2229157 29.6676146,21.1409918 29.8767964,20.9927762 C30.0859781,20.8445607 30.6920798,13.1230916 29.9430076,12.6907625 C29.1939355,12.2584334 29.3800225,12.2229157 29.1752597,12.2229157 C26.4657411,12.2229157 24.2692423,14.2376344 24.2692423,16.7229157 C24.2692423,19.2081971 26.4657411,21.2229157 29.1752597,21.2229157 Z" id="Oval-2-Copy" fill="#F0D0B4" transform="translate(27.043339, 16.784002) scale(-1, 1) rotate(-5.000000) translate(-27.043339, -16.784002) "></path>
                            <path d="M7.4310604,16.4018316 C7.31252591,20.0043377 6.30625632,23.0043377 4.41225162,25.4018316" id="Line-Copy-6" stroke="#DB9C94" stroke-width="2.28096" stroke-linecap="round" transform="translate(6.111810, 21.039390) rotate(72.000000) translate(-6.111810, -21.039390) "></path>
                        </g>
                        <g id="T-shirt-Copy" transform="translate(90.573697, 42.000000)">
                            <path d="M21.28843,93 C22.7898568,92.5720939 24.1393915,90.5185319 25.3370341,86.8393138 C29.9129868,72.7817571 35.0827668,43.2250146 36.054391,20.4619173 C36.2075672,16.8733239 36.2564049,13.4535757 36.1821286,10.2900188 C36.0002016,2.54143227 30.7049419,2.85319881 27.0317054,0.145854451 C25.24458,-1.17133919 25.4875095,6.90264062 21.28843,5.54139979 C17.0893505,4.18015896 19.6472392,0.145854451 18.5655451,0.145854451 C14.2656399,0.145854451 6.13823132,7.93174553 3.64599436,19.3919129 C2.89539363,22.8434346 7.75397767,21.9552561 7.27067944,26.066171 C6.5555306,32.1491976 6.15920861,38.8577992 6.15920861,45.9069076 C6.15920861,62.0092725 1.30875865,77.9681519 3.64599436,86.8393138 C3.94036622,87.9566253 9.82117809,90.0101874 21.28843,93 Z" id="Oval" fill="#CB000C"></path>
                            <path d="M21.1825219,93 C22.7109899,92.568632 24.08483,90.4984559 25.3040424,86.7894716 C29.9624092,72.6181839 35.2252983,42.8223163 36.2144216,19.8750569 C36.3019559,17.8442976 33.2646978,15.5180873 31.0010773,24.3759888 C29.2322488,31.2976921 26.1422757,50.9143472 25.3040424,53.418253 C19.0535108,72.0893584 0.843011724,77.8465386 3.22234164,86.7894716 C3.52201521,87.9158225 9.50874198,89.9859987 21.1825219,93 Z" id="Oval-Copy-2" fill="#860008"></path>
                        </g>
                        <g id="Arms-Copy" transform="translate(66.413793, 60.000000)" stroke="#F0D0B4" stroke-linecap="round" stroke-width="6.08256">
                            <path d="M60.3761755,0 C56.908121,14.2876922 50.7457393,25.110882 41.8890304,32.4695693 C33.0323215,39.8282566 19.0693114,46.0050669 2.22044605e-16,51" id="Line-Copy-5"></path>
                        </g>
                        <path d="M88.4853434,119.596551 L97.6934697,121.729314 C99.5980872,122.170467 100.857582,123.984277 100.605523,125.923001 C99.2866831,136.066927 98.2443495,143.16527 97.4785226,147.218028 C96.7156564,151.255118 95.1358671,158.04527 92.7391546,167.588483 C92.2628072,169.48523 90.4251357,170.711126 88.4909105,170.422458 L76.6993909,168.66267 C74.6228278,168.352754 73.190672,166.418134 73.5005822,164.34157 C73.513536,164.254773 73.5294914,164.16845 73.5484198,164.082758 C75.4134997,155.639132 76.7861253,149.397421 77.6662964,145.357624 C78.387693,142.046569 78.450105,137.875733 77.8535324,132.845116 C77.7896473,132.306404 79.9697505,128.458452 84.393842,121.301262 C85.2510487,119.914484 86.8970654,119.228678 88.4853434,119.596551 Z" id="Rectangle-Copy-2" fill="#FFFFFF" transform="translate(87.206159, 144.918526) scale(-1, 1) rotate(-43.000000) translate(-87.206159, -144.918526) "></path>
                        <path d="M98.1785602,127.902646 L114.168293,125.400068 C116.242605,125.075418 118.18735,126.493796 118.512004,128.568107 C118.568224,128.927315 118.572623,129.29273 118.525067,129.653187 C117.269741,139.168149 116.269662,145.886252 115.524829,149.807496 C114.741164,153.933178 113.116212,160.879349 110.649971,170.646008 C110.171898,172.539243 108.337261,173.762405 106.40577,173.475638 L94.1406126,171.654642 C92.0638109,171.346303 90.6301901,169.412763 90.9385308,167.335961 C90.9517644,167.246827 90.968163,167.158192 90.9876956,167.070223 C92.9068665,158.426864 94.318647,152.040454 95.2230371,147.910993 C96.0976279,143.917596 96.0269923,138.697343 95.0111302,132.250235 C94.6843364,130.176258 96.1007084,128.230048 98.1746858,127.903254 C98.1759772,127.903051 98.1772686,127.902848 98.1785602,127.902646 Z" id="Rectangle-Copy" fill="#EFEFEF" transform="translate(104.802064, 149.144178) scale(-1, 1) rotate(-14.000000) translate(-104.802064, -149.144178) "></path>
                        <path d="M126.771101,63 C130.105585,63 135.511852,60.5976562 132.808719,55.5 C130.105585,50.4023437 125.019896,45.8430176 122.87669,45.8430176 C120.733484,45.8430176 120.733484,51.3578644 120.733484,55.5 C120.733484,59.6421356 123.436617,63 126.771101,63 Z" id="Oval-90" fill="#CB000C"></path>
                    </g>
                    <g id="girlvolleyball" transform="translate(620.000000, 72.000000)">
                        <g id="Legs" transform="translate(89.368581, 108.687508) scale(-1, 1) translate(-89.368581, -108.687508) translate(43.580260, 81.755690)" stroke-linecap="round" stroke-width="3.31776">
                            <path d="M52.4811376,0 C69.8339515,1.8515468 81.0336036,5.35317814 86.080094,10.504894 C91.1265843,15.6566099 91.1265843,30.0013534 86.080094,53.5391246" id="Line" stroke="#A8672D"></path>
                            <path d="M41.6973422,0 C39.692752,18.2062932 35.7115783,31.1343011 29.7538211,38.7840239 C23.7960638,46.4337466 13.8781234,51.3521135 -5.78009862e-15,53.5391246" id="Line-Copy" stroke="#A8672D"></path>
                            <path d="M41.6973422,0 C39.4816667,12.659403 38.0438273,20.3767543 37.3838241,23.1520539" id="Line-Copy-8" stroke="#895322"></path>
                        </g>
                        <g id="Shoes" transform="translate(92.811742, 138.007946) scale(-1, 1) translate(-92.811742, -138.007946) translate(43.277386, 131.677306)" stroke="#444444" stroke-linecap="round" stroke-width="3.52512">
                            <path d="M98.4497599,10.4226749 C96.1636882,9.14283472 94.6275345,7.97877744 93.8412987,6.93050305 C93.055063,5.88222866 93.3622142,3.66992638 94.7627523,0.29359621" id="Line-Copy-4" transform="translate(95.933516, 5.358136) rotate(-7.000000) translate(-95.933516, -5.358136) "></path>
                            <path d="M8.37369105,11.6706506 C5.82527888,10.6459326 4.24775353,9.48186159 3.64111498,8.17843755 C3.03447642,6.87501351 3.35001438,4.66253177 4.58772884,1.54099233" id="Line-Copy-7" transform="translate(5.857753, 6.605821) rotate(65.000000) translate(-5.857753, -6.605821) "></path>
                        </g>
                        <g id="Arms" transform="translate(83.837097, 48.112862) scale(-1, 1) translate(-83.837097, -48.112862) translate(39.706488, 22.790303)" stroke-linecap="round" stroke-width="3.31776">
                            <g id="Group" transform="translate(21.073394, 25.337973) rotate(-6.000000) translate(-21.073394, -25.337973) translate(2.160275, 3.632923)">
                                <path d="M28.4685154,2.70690935 C17.9377315,9.24543656 11.7613056,14.6026019 9.93923786,18.7784053 C8.11717008,22.9542087 9.11841374,30.1382795 12.9429689,40.3306176" id="Line-Copy-2" stroke="#A8672D" transform="translate(18.762914, 21.518763) rotate(32.000000) translate(-18.762914, -21.518763) "></path>
                                <path d="M36.450316,8.2679081 C32.3794078,10.8276247 29.7433672,12.5159485 28.5421943,13.3328796" id="Line-Copy-9" stroke="#895322" transform="translate(32.496255, 10.800394) rotate(32.000000) translate(-32.496255, -10.800394) "></path>
                            </g>
                            <path d="M85.0259904,5.21426114 C84.2931307,15.3679881 81.5337174,22.4209297 76.7477505,26.3730859 C71.9617837,30.3252422 64.4165365,33.6427046 54.1120092,36.3254731" id="Line-Copy-5" stroke="#A8672D" transform="translate(69.569000, 20.769867) scale(-1, 1) rotate(11.000000) translate(-69.569000, -20.769867) "></path>
                        </g>
                        <g id="Ball" transform="translate(16.307824, 124.585926) scale(-1, 1) translate(-16.307824, -124.585926) translate(3.139941, 111.419259)" fill="#662D91">
                            <ellipse id="Oval-4" cx="12.9405545" cy="13.0230303" rx="12.9405545" ry="13.0230303"></ellipse>
                        </g>
                        <g id="Shadows" transform="translate(81.956845, 152.839731) scale(-1, 1) translate(-81.956845, -152.839731) translate(0.000000, 148.317845)" fill="#000000" fill-opacity="0.3">
                            <ellipse id="Oval-6" opacity="0.9" cx="57.5135755" cy="4.3410101" rx="57.5135755" ry="4.3410101"></ellipse>
                            <ellipse id="Ovalshadow2" cx="145" cy="3.97925926" rx="11" ry="1.80875421"></ellipse>
                        </g>
                        <g id="Pense" transform="translate(78.928050, 88.335034) scale(-1, 1) translate(-78.928050, -88.335034) translate(54.687174, 73.073670)">
                            <path d="M29.8026121,-4.47733508 L37.262598,-5.50329284 C38.3971434,-5.65934141 39.443365,-4.86609791 39.5993972,-3.73155027 C39.6264927,-3.53453249 39.6251053,-3.33464142 39.5952775,-3.13801874 C39.047715,0.471480146 38.6077208,3.04518163 38.275295,4.5830857 C37.8904706,6.36340216 36.1504478,12.8550024 33.0552266,24.0578865 C32.7502301,25.1617345 31.6081451,25.8093475 30.5042929,25.5043665 C30.3900497,25.4728025 30.2787231,25.4315017 30.1715361,25.3809177 L24.9859642,22.9337297 C24.1460961,22.5373526 23.6721855,21.6308923 23.8260076,20.7150146 C24.7717987,15.083645 25.4699919,11.3639731 25.9205873,9.55599883 C26.375698,7.729907 27.0803173,3.63441684 28.0344452,-2.73047163 C28.1708734,-3.64062167 28.8908757,-4.35194569 29.8026121,-4.47733508 Z" id="Rectangle-Copy" fill="#707070" transform="translate(31.785223, 10.275869) rotate(-87.000000) translate(-31.785223, -10.275869) "></path>
                            <path d="M13.3141167,0.0775845213 L18.2283048,1.39254941 C19.2474948,1.66527509 19.8994246,2.65979937 19.7429646,3.70318219 C19.1361284,7.74998179 18.6541661,10.5973442 18.2970774,12.2452694 C17.9101631,14.0308371 16.1892988,19.6004648 13.1344847,28.9541524 C12.8267449,29.896464 11.8950978,30.4891698 10.9111661,30.3686164 L3.61091654,29.474174 C2.47420381,29.3348945 1.66561814,28.3005033 1.80489074,27.1637897 C1.82495012,27.0000693 1.86447241,26.839327 1.92261958,26.6849714 C5.15552432,18.1030029 6.995213,12.9185104 7.44168561,11.1314937 C7.87827282,9.38404356 9.01155936,6.12001318 10.8415452,1.33940256 C11.2211298,0.347795307 12.2884261,-0.19687529 13.3141167,0.0775845213 Z" id="Rectangle" fill="#444444"></path>
                        </g>
                        <g id="Head" transform="translate(73.298208, 17.183165) scale(-1, 1) translate(-73.298208, -17.183165) translate(58.888213, 0.000000)">
                            <path d="M5.99524864,23.9825858 C9.51448539,29.0628086 9.80322779,31.9568785 6.86147584,32.6647953" id="Line-Copy-3" stroke="#A8672D" stroke-width="3.73248" stroke-linecap="round" transform="translate(7.432919, 28.323691) rotate(32.000000) translate(-7.432919, -28.323691) "></path>
                            <path d="M8.90970376,23.669762 C8.31302605,23.0677023 8.42749037,23.1824446 9.25309672,24.013989" id="Line-Copy-10" stroke="#895322" stroke-width="3.73248" stroke-linecap="round" transform="translate(8.893661, 23.652244) rotate(32.000000) translate(-8.893661, -23.652244) "></path>
                            <ellipse id="Oval-2" fill="#A8672D" cx="11.1432553" cy="14.1082828" rx="9.70541586" ry="9.76727273"></ellipse>
                            <path d="M9.93289028,11.3647778 C10.6538228,9.85837701 12.5452008,9.10517659 15.6070242,9.10517659 C19.8984067,9.10517659 20.6598625,14.04843 21.1125299,14.04843 C21.4251352,14.04843 27.7046741,15.2777021 28.0271094,14.04843 C28.3322817,12.8849726 22.0403369,10.8423139 22.4854103,9.10517659 C23.1864764,6.36889092 25.6034102,3.90984116 25.4442186,3.60591532 C23.3158015,-0.457622469 19.0907837,-0.601531594 13.0282463,0.807983113 C8.50757256,1.85902094 4.41314364,2.22094047 2.81266658,4.60459687 C-0.402867328,9.39362396 -0.677672096,15.8860808 1.05975568,17.4810934 C1.78702048,18.148745 3.14014324,21.6186818 5.04596225,21.7031617 C6.72897602,21.7777652 6.31787826,19.6250393 7.53270147,18.3146768 C9.18754575,16.529688 9.98760869,14.213055 9.93289028,11.3647778 Z" id="Oval-3" fill="#000000"></path>
                            <path d="M5.66068904,16.2674914 C5.78381396,16.2674914 5.89519322,16.2213831 5.99482655,16.1379747 C6.09445988,16.0545662 6.38327313,11.7094534 6.02650658,11.4661798 C5.66974003,11.2229061 5.75837167,11.2029196 5.6608456,11.2029196 C4.37033447,11.2029196 3.32413346,12.3367348 3.32409022,13.7352777 C3.32404699,15.1338206 4.37017792,16.2674914 5.66068904,16.2674914 Z" id="Oval-2-Copy" fill="#A8672D" transform="translate(4.761925, 13.735206) rotate(21.000000) translate(-4.761925, -13.735206) "></path>
                            <path d="M16.0731269,16.4685574 C15.4930838,19.4303224 14.5344869,21.6010009 13.1973359,22.9805927" id="Line-Copy-6" stroke="#DB8F4A" stroke-width="1.24416" stroke-linecap="round" transform="translate(14.635231, 19.724575) scale(-1, 1) rotate(54.000000) translate(-14.635231, -19.724575) "></path>
                        </g>
                        <g id="T-shirt" transform="translate(83.363084, 52.815623) scale(-1, 1) translate(-83.363084, -52.815623) translate(68.953089, 27.493064)">
                            <path d="M10.4420045,49.7836342 C12.9814765,50.0356135 14.5949255,49.170295 15.2823517,47.1876787 C18.3229393,38.4182739 21.0596809,20.6593809 22.2974366,16.2070675 C23.127264,13.2221072 22.6120005,16.7448828 23.6338612,15.6837512 C24.2612755,15.032225 26.5982035,13.1898056 27.1615425,11.7040059 C27.5157057,10.7699047 27.1615425,9.87488581 27.1615425,9.34908286 C27.1615425,8.89216165 26.6270519,7.82826837 26.444744,7.51586211 C24.8979148,4.8651867 23.363343,2.96631274 21.2549685,1.50740898 C20.2291893,0.797614254 20.6654292,3.42556271 18.2552299,2.69203232 C15.8450306,1.95850193 17.5490304,2.63955524e-14 16.9281566,2.63955524e-14 C14.4600851,2.63955524e-14 0.0624535105,2.69203232 0.0624535105,5.31305179 C0.0624535105,6.81865381 -0.379807743,11.1039599 1.08947164,13.2221072 C1.93352929,14.4389203 4.98325499,12.6576875 4.91257531,13.2221072 C4.5020922,16.5000612 4.2746102,21.3319313 4.2746102,25.1304768 C4.2746102,33.8075409 3.57104227,42.4072852 4.91257531,47.1876787 C5.16602188,48.0908054 5.38851655,47.6544761 5.78017161,48.3746749 C6.50850249,49.7139734 8.06244678,50.1836265 10.4420045,49.7836342 Z" id="Oval" fill="#0D7ED9"></path>
                            <path d="M12.2216348,50.4293291 C10.2835001,43.5440348 9.16033802,38.6345362 8.85214863,35.7008334 C7.78656884,25.5574134 8.9206663,18.3682119 8.85214863,14.7819697 C8.73879883,8.84919575 5.44091296,12.5493881 5.17117598,14.7819697 C4.77203923,18.0855781 4.55084517,21.7289279 4.55084517,25.5572021 C4.55084517,34.3021761 3.76033658,42.7636203 5.06478768,47.5814269 C5.16020215,47.9338268 5.43522863,49.8314917 7.00511832,50.4293291 C7.76065142,50.7170474 9.49949025,50.7170474 12.2216348,50.4293291 Z" id="Oval-Copy" fill="#025579"></path>
                        </g>
                    </g>
                    <g id="boysoccer" transform="translate(238.000000, 132.000000) scale(-1, 1) translate(-238.000000, -132.000000) translate(163.000000, 31.000000)">
                        <g id="Legs-Copy" transform="translate(32.160000, 117.089713)" stroke="#F0D0B4" stroke-linecap="round" stroke-width="3.84">
                            <path d="M33.4361472,0.126518141 C19.3503824,10.7455373 10.29,21.7222735 6.255,33.0567268 C2.22,44.3911802 0.2025,55.3679164 0.2025,65.9869356" id="Line-Copy"></path>
                            <path d="M43.5102239,0.126518141 C37.656592,22.4702131 37.656592,36.6462279 43.5102239,42.6545628 C49.3638558,48.6628976 64.0860728,52.6736088 87.676875,54.6866963" id="Line"></path>
                        </g>
                        <path d="M60.9504622,104.334723 L67.0036266,105.695589 C68.217476,105.968479 69.0215289,107.12373 68.8558255,108.356792 C67.9979078,114.740882 67.3202903,119.209286 66.8229728,121.762002 C66.3024321,124.433922 65.425168,131.360977 64.1911807,142.543166 C64.0595946,143.735521 63.067829,144.647602 61.8686488,144.679084 L52.3966646,144.927758 C51.0716392,144.962542 49.9692938,143.916597 49.9345071,142.591572 C49.9302327,142.42876 49.9425424,142.265935 49.9712458,142.105616 C52.0520768,130.483427 53.3970933,123.315353 54.0062952,120.601395 C54.4750482,118.513128 54.5179893,115.883136 54.1351187,112.711418 C54.0940021,112.370807 55.5149496,109.930268 58.3979611,105.389802 C58.9409053,104.534716 59.9622317,104.11255 60.9504622,104.334723 Z" id="Rectangle-Copy-2" fill="#FFFFFF" transform="translate(59.299628, 124.485073) scale(-1, 1) rotate(-51.000000) translate(-59.299628, -124.485073) "></path>
                        <path d="M71.5393657,110.777244 L81.6043239,109.225964 C82.9143443,109.02404 84.1400075,109.922343 84.3419172,111.232366 C84.3769556,111.459701 84.379131,111.690892 84.3483766,111.918846 C83.5578019,117.778643 82.9278915,121.918499 82.4586454,124.338415 C81.9340827,127.0436 80.2724213,135.301635 77.4736611,149.112519 C77.2352221,150.289157 76.1640165,151.108594 74.9659841,151.030814 L64.7234232,150.365832 C63.4007194,150.279966 62.3980715,149.138088 62.483946,147.815384 C62.496077,147.628533 62.5300328,147.443743 62.5851207,147.264785 C66.6857441,133.943544 69.0424696,125.911962 69.6552972,123.17004 C70.2055674,120.708014 70.1653725,117.493337 69.5347126,113.526009 C69.3266306,112.216965 70.2191293,110.987086 71.5281721,110.778996 C71.5319019,110.778404 71.5356331,110.777819 71.5393657,110.777244 Z" id="Rectangle-Copy" fill="#EFEFEF" transform="translate(73.230313, 129.952228) scale(-1, 1) rotate(-14.000000) translate(-73.230313, -129.952228) "></path>
                        <path d="M68.7922974,25.214761 C70.5349148,34.6591472 70.3345126,41.8106788 68.1910908,46.6693559 C66.0476691,51.5280329 60.9279756,58.1459785 52.8320104,66.5231926" id="Line-Copy-2" stroke="#F0D0B4" stroke-width="3.84" stroke-linecap="round" transform="translate(61.398236, 45.868977) rotate(125.000000) translate(-61.398236, -45.868977) "></path>
                        <g id="Shoes-Copy" transform="translate(21.840000, 168.541866)" stroke="#CB000C" stroke-linecap="round" stroke-width="4.08">
                            <path d="M104.624413,12.4451152 C101.889418,10.9841461 100.051897,9.65480197 99.1118473,8.45708285 C98.171798,7.25936374 98.5415469,4.72970019 100.221094,0.868092216" id="Line-Copy-4" transform="translate(101.615126, 6.656604) scale(-1, -1) rotate(-28.000000) translate(-101.615126, -6.656604) "></path>
                            <path d="M9.5784418,24.0662389 C6.60400219,22.8934992 4.76223443,21.5625986 4.05313852,20.0735371 C3.34404261,18.5844756 3.71002648,16.0582356 5.15109014,12.4948169" id="Line-Copy-7" transform="translate(6.640402, 18.280528) rotate(242.000000) translate(-6.640402, -18.280528) "></path>
                        </g>
                        <g id="Ball-Copy" transform="translate(10.800000, 0.000000)" fill="#F56E00">
                            <ellipse id="Oval-9000" cx="14.88" cy="14.9066986" rx="14.88" ry="14.9066986"></ellipse>
                        </g>
                        <g id="Shadows-Copy" transform="translate(0.000000, 190.661483)" fill="#000000" fill-opacity="0.3" opacity="0.9">
                            <ellipse id="Oval-6" cx="83.64" cy="5.16925837" rx="66.36" ry="5.16925837"></ellipse>
                            <ellipse id="Ovalshadow3" cx="11.28" cy="5.28947368" rx="11.28" ry="2.40430622"></ellipse>
                        </g>
                        <g id="Head-Copy" transform="translate(66.720000, 24.764354)">
                            <path d="M9.2122992,27.3360353 C13.0239256,33.3830474 13.3394059,36.8261249 10.1587401,37.6652677" id="Line-Copy-3" stroke="#F0D0B4" stroke-width="4.32" stroke-linecap="round" transform="translate(10.770640, 32.500651) rotate(32.000000) translate(-10.770640, -32.500651) "></path>
                            <path d="M13.3248503,33.9258042 C13.7224953,33.9258042 14.164166,26.9034957 13.9814518,26.3679709 C13.9022351,26.1357912 13.3573833,26.0256557 13.0423112,25.9042497 C12.6306662,25.7456315 12.4255412,25.6121641 12.2808268,25.6121641 C11.8831818,25.6121641 11.9647721,30.2030037 11.7016862,31.2814195 C11.5862238,31.7547115 11.4515247,32.3119333 11.5597721,32.6474599 C11.8523223,33.554256 13.0966614,33.9258042 13.3248503,33.9258042 Z" id="Oval-7" fill="#DDBEA4"></path>
                            <ellipse id="Oval-2" fill="#F0D0B4" cx="11.52" cy="15.9949392" rx="11.28" ry="11.3002392"></ellipse>
                            <path d="M9.69458667,10.711372 C10.9259929,9.32373047 12.8388588,8.42620754 15.4331843,8.01880325 C16.271684,7.88712803 18.3259148,8.16818427 18.4692351,8.16818427 C18.6125554,8.16818427 18.3519304,5.75325355 18.3519304,5.75325355 C18.3519304,5.75325355 18.8557781,7.93095603 19.1330437,8.16818427 C19.2524351,8.27033543 20.5311072,8.0135062 22.062907,9.30330326 C22.8162664,9.93764251 23.7297429,10.9951616 24.8033367,12.4758604 C25.1152898,9.59507584 24.9249382,7.4277957 24.232282,5.97402005 C22.9835655,3.35316223 20.39845,0.374151817 13.887321,0.0450807416 C12.9438933,-0.00259989637 6.86231395,0.211608945 2.24825854,5.97402005 C0.0752078032,8.68790418 -0.575655402,16.3728257 0.851309286,18.276484 C1.59897279,19.2739129 2.85756333,21.2158359 4.77857104,23.4224976 C5.08192904,23.770965 5.59513216,24.2142981 6.31818042,24.7524969 C6.64428915,22.2310796 7.26885946,20.5280294 8.19189136,19.6433462 C9.13805392,18.7364933 8.07768221,15.8778852 8.19189136,14.5019111 C8.2675254,13.5906837 8.76842384,12.3271707 9.69458667,10.711372 Z" id="Oval-3" fill="#FFED12" transform="translate(12.520379, 12.396478) scale(-1, 1) translate(-12.520379, -12.396478) "></path>
                            <path d="M18.9327542,18.4148881 C19.0845104,18.4148881 19.2217969,18.3623134 19.344612,18.2672655 C19.4674271,18.1722175 19.8218054,13.5132973 19.4917131,13.053637 C19.1616207,12.5939766 19.0539558,12.6446196 18.9337512,12.6446404 C17.3431471,12.6449158 16.0534844,13.9368529 16.053209,15.5302629 C16.0529338,17.1236728 17.34215,18.4151635 18.9327542,18.4148881 Z" id="Oval-2-Copy" fill="#F0D0B4" transform="translate(17.840969, 15.528934) scale(-1, 1) rotate(-5.000000) translate(-17.840969, -15.528934) "></path>
                            <path d="M4.44642055,14.0465302 C4.36237885,16.3907193 3.63841099,18.3424687 2.27451695,19.9017784" id="Line-Copy-6" stroke="#DB9C94" stroke-width="1.44" stroke-linecap="round" transform="translate(3.360469, 16.974154) rotate(72.000000) translate(-3.360469, -16.974154) "></path>
                        </g>
                        <g id="T-shirt-Copy" transform="translate(59.280000, 55.779904)">
                            <path d="M18.5762044,68.7246514 C20.5712476,68.4220584 27.7046369,27.235542 28.3476113,12.9594254 C28.448976,10.7088012 28.4812945,8.56407002 28.4321419,6.58001196 C28.3117513,1.7204042 24.8076017,1.91593187 22.3768294,0.217992299 C21.1941953,-0.60809959 21.3549544,4.45558201 18.5762044,3.60186547 C15.7974544,2.74814892 17.4901429,0.217992299 16.7743294,0.217992299 C13.9288578,0.217992299 7.99078125,0.217992299 7.4175,0.787504205 C6.91337098,1.28831856 5.2190625,5.84171277 5.70328125,6.58001196 C6.34454227,7.55775703 9.49693966,8.66047464 10.1057812,9.13072854 C10.5271475,9.45618123 9.36071346,12.4694097 9.29992749,12.9594254 C8.82667619,16.7744597 8.56440925,24.4970133 8.56440925,28.9175194 C8.56440925,54.5364272 -1.28229583,54.215299 0.264375,59.7789418 C0.556576826,60.8300423 16.5811613,69.0272445 18.5762044,68.7246514 Z" id="Oval" fill="#0D7ED9"></path>
                            <path d="M18.7122656,68.7591664 C19.8909375,68.1862653 21.4649029,59.4263464 23.615625,48.1142999 C26.0010127,35.5679945 27.9666463,20.5814726 28.3047649,13.0741427 C28.3616661,11.8107519 26.3873125,10.363553 24.915858,15.8742953 C23.7660404,20.180476 21.7574197,32.3845327 21.2125306,33.9422809 C17.1494056,45.5580853 6.10992188,61.5359167 6.10992188,63.1311175 C6.10992188,63.6504852 17.5335937,69.3320675 18.7122656,68.7591664 Z" id="Oval-Copy-2" fill="#04487F"></path>
                        </g>
                        <g id="Arms-Copy" transform="translate(40.800000, 32.938995)" stroke="#F0D0B4" stroke-linecap="round" stroke-width="3.84">
                            <path d="M39.9127081,7.04248859 C37.7415136,15.9567603 33.8781957,22.7081874 28.3227545,27.2967697 C22.7673133,31.8853521 14.0069207,35.7345666 2.04157666,38.8444131" id="Line-Copy-5" transform="translate(20.977142, 22.943451) rotate(72.000000) translate(-20.977142, -22.943451) "></path>
                        </g>
                        <path d="M82.32,72.0152741 C83.2823438,72.0152741 86.64,70.0776739 86.64,67.6875229 C86.64,65.2973719 84.7058701,63.3597717 82.32,63.3597717 C79.9341299,63.3597717 78.3684375,64.1818275 77.446875,65.4586456 C76.5253125,66.7354637 81.3576563,72.0152741 82.32,72.0152741 Z" id="Oval-9090" fill="#0D7ED9"></path>
                    </g>
                </g>
            </g>
        </g>
    </g>
</svg>