<?xml version="1.0" encoding="UTF-8"?>
<svg width="20px" height="20px" viewBox="0 0 20 20" version="1.1" xmlns="http://www.w3.org/2000/svg" xmlns:xlink="http://www.w3.org/1999/xlink">
    <!-- Generator: Sketch 61 (89581) - https://sketch.com -->
    <title>icon-sm-football</title>
    <desc>Created with Sketch.</desc>
    <g id="Web-app" stroke="none" stroke-width="1" fill="none" fill-rule="evenodd">
        <g id="Artboard" transform="translate(-6.000000, -5.000000)" fill="#FFFFFF">
            <g id="Pointer-map-football">
                <g id="football-icon" transform="translate(6.000000, 5.000000)">
                    <path d="M10.1807603,0.0315705573 C12.7123495,0.0315705573 15.1828855,1.03090012 17.0205242,2.87656347 C18.8581629,4.72283394 19.8537521,7.20355119 19.8531476,9.74619531 C19.8531476,10.5840293 19.7449445,11.4291489 19.5237025,12.2596974 C18.6290626,15.6122477 16.0225171,18.2301754 12.6845431,19.1287221 C11.8576057,19.3515374 11.0161606,19.4596058 10.1819693,19.4596058 C7.65038017,19.4602129 5.17984416,18.4602762 3.34220543,16.6146129 C1.50456671,14.7689495 0.509582054,12.2876252 0.509582054,9.74498105 C0.509582054,8.90714703 0.617785124,8.0620275 0.839027155,7.23147899 C1.73366706,3.87953579 4.34021251,1.26100091 7.67818654,0.362454283 C8.50512397,0.140246129 9.34656907,0.0315705573 10.1807603,0.0315705573 Z M7.88371192,12.8668235 L5.93424321,14.8254123 L6.65768411,17.4736561 C7.52530471,17.8725303 8.45451512,18.1213991 9.40488228,18.2094331 L11.2827391,16.3219781 L10.5404298,13.5880893 L7.88371192,12.8668235 Z M12.1834238,17.1343128 L11.1322934,18.1916228 C11.5470916,18.1445348 11.9611983,18.0662439 12.3714191,17.9557544 C12.7963132,17.8414718 13.207674,17.6953277 13.6028553,17.5199816 L12.1834238,17.1343128 Z M13.7575065,11.3052951 L11.7270366,13.3446317 L12.4330767,15.9443457 L15.0928653,16.6678354 C15.8682439,16.1127955 16.5453472,15.4298696 17.0947207,14.6486619 L16.3791641,12.0168469 L13.7575065,11.3052951 Z M3.37746714,14.8005333 C3.62472847,15.1361526 3.89837459,15.4557639 4.19755372,15.7561366 C4.50081234,16.0607195 4.82374518,16.3389555 5.16300664,16.5899487 L4.7772562,15.1799739 Z M3.57674616,8.65215407 L1.75069962,10.4849976 C1.83561778,11.4607549 2.08782381,12.415028 2.49587522,13.3044185 L5.04987957,13.996078 L7.06825974,11.968884 L6.36765998,9.40984745 L3.57674616,8.65215407 Z M18.5847284,10.7521836 L17.5663754,11.7733894 L17.9388053,13.1438376 C18.1059206,12.7588178 18.2457295,12.3586732 18.3558347,11.9458132 C18.4613143,11.5504351 18.5373209,11.1516484 18.5847284,10.7521836 Z M9.43724203,7.05905518 L7.50832586,8.99639457 L8.25063518,11.709034 L10.9236741,12.4345497 L12.8568217,10.4929604 L12.1241842,7.79489202 L9.43724203,7.05905518 Z M15.2759764,5.4872057 L13.2920519,7.48040069 L14.0071594,10.115328 L16.7624085,10.8633073 L18.6120308,9.00619961 C18.5274467,8.03429545 18.2768883,7.08379996 17.8717165,6.19750286 L15.2759764,5.4872057 Z M2.42672688,6.34173955 C2.25841305,6.72865033 2.11765908,7.1308741 2.00689492,7.54597031 C1.90135044,7.94159161 1.82531523,8.34062578 1.77791377,8.74023942 L2.80300354,7.71171574 Z M5.21165928,2.8657798 C4.46154938,3.4125044 3.80531882,4.07974032 3.27010394,4.84023274 L4.00170012,7.51014987 L6.58164817,8.21016627 L8.58189374,6.20057887 L7.87464463,3.59540077 Z M11.0264521,1.28837978 L9.0425124,3.28151658 L9.74976151,5.88548043 L12.4373081,6.62192439 L14.4212326,4.62933652 L13.7133751,2.02129619 C12.8642174,1.62981911 11.9558994,1.38214196 11.0264521,1.28837978 Z M15.2063402,2.90604721 L15.5884959,4.31423808 L16.9907964,4.69827293 C16.7422456,4.36010303 16.466949,4.03813062 16.1657804,3.7356469 C15.8643305,3.43276678 15.5434191,3.15594151 15.2063402,2.90604721 Z M9.31266649,1.29065517 C8.87042466,1.33646819 8.42854991,1.41765521 7.99131051,1.53542191 C7.53703922,1.65770052 7.09825204,1.81636927 6.67817578,2.00818727 L8.1877686,2.42304027 Z" id="icon-sm-football"></path>
                </g>
            </g>
        </g>
    </g>
</svg>