<?xml version="1.0" encoding="UTF-8"?>
<svg width="20px" height="20px" viewBox="0 0 20 20" version="1.1" xmlns="http://www.w3.org/2000/svg" xmlns:xlink="http://www.w3.org/1999/xlink">
    <!-- Generator: Sketch 61 (89581) - https://sketch.com -->
    <title>icon-sm-jeudeboule</title>
    <desc>Created with Sketch.</desc>
    <g id="Web-app" stroke="none" stroke-width="1" fill="none" fill-rule="evenodd">
        <g id="Artboard" transform="translate(-254.000000, -5.000000)" fill="#FFFFFF">
            <g id="pointer-map-basketball-copy-3" transform="translate(248.000000, 0.000000)">
                <path d="M15.9943743,5 C21.5113139,5.00125 25.9987498,9.48375 26,15 C25.9987498,20.51625 21.6332042,24.99875 16.0075009,25 C10.3817977,24.99875 6.00062508,20.51625 6,15 C6.00062508,9.48375 10.4780598,5.00125 15.9943743,5 Z M15.9912489,6.25 C13.5771971,6.25 11.3944243,7.23 9.80735092,8.815625 C8.22152769,10.4025 7.24390549,12.58625 7.24328041,15 C7.24390549,17.41375 8.22777847,19.5975 9.81422678,21.184375 C11.4006751,22.77 13.5071884,23.75 16.0075009,23.75 C18.5078135,23.75 20.5968246,22.77 22.183898,21.184375 C23.7697212,19.5975 24.7417177,17.41375 24.7417177,15 C24.7417177,12.58625 23.7615952,10.4025 22.175772,8.815625 C20.5886986,7.23 18.4053007,6.25 15.9912489,6.25 Z M15.9906238,7.5 C20.128016,7.50125 23.4903113,10.8625 23.4915614,15 C23.4903113,19.1375 20.128016,22.49875 15.9906238,22.5 C11.8526066,22.49875 8.49031129,19.1375 8.48968621,15 C8.49031129,10.8625 11.8526066,7.50125 15.9906238,7.5 Z M15.9906238,8.75 C14.2660333,8.75 12.7070884,9.45 11.5725716,10.583125 C10.4393049,11.716875 9.73984248,13.275625 9.73984248,15 C9.73984248,16.724375 10.4393049,18.283125 11.5725716,19.416875 C12.7070884,20.55 14.2660333,21.25 15.9906238,21.25 C17.7145893,21.25 19.2735342,20.55 20.408051,19.416875 C21.5413177,18.283125 22.2407801,16.724375 22.2414052,15 C22.2407801,13.275625 21.5413177,11.716875 20.408051,10.583125 C19.2735342,9.45 17.7145893,8.75 15.9906238,8.75 Z M15.9906238,11.25 C18.0602575,11.25125 19.7398425,12.930625 19.7410926,15 C19.7398425,17.069375 18.0602575,18.74875 15.9906238,18.75 C13.920365,18.74875 12.2407801,17.069375 12.240155,15 C12.2407801,12.930625 13.920365,11.25125 15.9906238,11.25 Z M15.9906238,12.5 C14.6135767,12.5025 13.4928116,13.62375 13.4903113,15 C13.4928116,16.376875 14.6135767,17.4975 15.9906238,17.5 C17.3670459,17.4975 18.487811,16.376875 18.4909364,15 C18.487811,13.62375 17.3670459,12.5025 15.9906238,12.5 Z M15.9906238,13.75 C16.6807101,13.75 17.2407801,14.309375 17.2407801,15 C17.2407801,15.690625 16.6807101,16.25 15.9906238,16.25 C15.2999125,16.25 14.7404676,15.690625 14.7404676,15 C14.7404676,14.309375 15.2999125,13.75 15.9906238,13.75 Z" id="icon-sm-jeudeboule"></path>
            </g>
        </g>
    </g>
</svg>