<?xml version="1.0" encoding="UTF-8"?>
<svg width="20px" height="20px" viewBox="0 0 20 20" version="1.1" xmlns="http://www.w3.org/2000/svg" xmlns:xlink="http://www.w3.org/1999/xlink">
    <!-- Generator: Sketch 61 (89581) - https://sketch.com -->
    <title>icon-sm-tennis</title>
    <desc>Created with Sketch.</desc>
    <g id="Web-app" stroke="none" stroke-width="1" fill="none" fill-rule="evenodd">
        <g id="Artboard" transform="translate(-130.000000, -5.000000)" fill="#FFFFFF">
            <g id="pointer-map-tennis" transform="translate(124.000000, 0.000000)">
                <path d="M15.9943743,5 C16.2101868,5.0000489 16.4244239,5.00695514 16.6368787,5.02051235 C16.6436858,5.02107773 16.6503488,5.02161543 16.656984,5.02225781 C21.8661145,5.36463782 25.9988003,9.70631057 26,15 C25.9987498,20.51625 21.6332042,24.99875 16.0075009,25 C15.7878533,24.9999512 15.5701029,24.9930712 15.3544362,24.9795651 C15.3416067,24.9793502 15.3289621,24.9783627 15.3164199,24.977001 C10.28342,24.6433396 6.39393343,20.6994065 6.0281531,15.7620017 C6.01173139,15.6993498 6.00507082,15.6333951 6.00937617,15.565625 C6.0101322,15.5540551 6.01119796,15.542579 6.01256485,15.5312043 C6.00461429,15.3554153 6.0000202,15.1782473 6,15 C6.00062508,9.48375 10.4780598,5.00125 15.9943743,5 Z M24.7410926,15 C22.327666,15 20.1430179,15.98 18.5565696,17.565625 C16.9707463,19.1525 15.9906238,21.33625 15.9899987,23.75 C15.9899987,23.7503345 15.9899988,23.750669 15.9899988,23.7510035 L16.0075009,23.75 C18.5078135,23.75 20.5968246,22.77 22.183898,21.184375 C23.7697212,19.5975 24.7410926,17.41375 24.7417177,15 L24.7417177,15 Z M17.2399377,6.33866941 L17.2362764,6.52957959 C17.0872438,11.9169118 12.662337,16.2487712 7.23890486,16.25 L7.33254802,16.2486237 C7.60810414,18.1624711 8.50632261,19.8762289 9.8136017,21.184375 C11.1248849,22.4944615 12.7907645,23.3911173 14.740376,23.6631854 C14.7879706,18.1870349 19.2535979,13.7512435 24.7410926,13.75 L24.6526633,13.7503702 C24.3779823,11.8369284 23.482822,10.1235419 22.175772,8.815625 C20.8674532,7.50850022 19.1538912,6.612939 17.2399377,6.33866941 Z M15.9892434,6.25000023 C13.5759882,6.25054283 11.3939848,7.23043911 9.80735092,8.815625 C8.22152769,10.4025 7.24390549,12.58625 7.24328041,15 C9.65598046,14.9986427 11.8380784,14.0189022 13.424053,12.434375 C15.0098762,10.8475 15.9899987,8.66375 15.9899987,6.25 Z" id="icon-sm-tennis"></path>
            </g>
        </g>
    </g>
</svg>