<?xml version="1.0" encoding="UTF-8"?>
<svg width="20px" height="20px" viewBox="0 0 20 20" version="1.1" xmlns="http://www.w3.org/2000/svg" xmlns:xlink="http://www.w3.org/1999/xlink">
    <!-- Generator: Sketch 61 (89581) - https://sketch.com -->
    <title>icon-sm-basketball</title>
    <desc>Created with Sketch.</desc>
    <g id="Web-app" stroke="none" stroke-width="1" fill="none" fill-rule="evenodd">
        <g id="Artboard" transform="translate(-68.000000, -5.000000)" fill="#FFFFFF">
            <g id="pointer-map-basketball" transform="translate(62.000000, 0.000000)">
                <path d="M15.9943743,5 C21.5113139,5.00125 25.9987498,9.48375 26,15 C25.9987498,20.51625 21.6332042,24.99875 16.0075009,25 C10.3817977,24.99875 6.00125016,20.51625 6,15 C6.00004369,14.8072287 6.00555305,14.6157199 6.01638146,14.4256207 L6.01250156,14.395625 C6.00767476,14.3256451 6.01456651,14.2575749 6.0315036,14.1933289 C6.22579677,11.7815708 7.27608019,9.60961329 8.87823321,7.98308482 L8.9216152,7.931875 C8.93780497,7.91568726 8.95466465,7.90057457 8.97210546,7.88653693 C10.6197438,6.26034931 12.8277123,5.19980117 15.2790357,5.02543505 C15.3142819,5.02188122 15.349664,5.02127554 15.3855482,5.02375 L15.3089988,5.02334871 C15.5354778,5.00791878 15.7640197,5.0000522 15.9943743,5 Z M15.9899987,15.88375 L10.2660796,21.607522 C11.7927567,22.9425028 13.7378881,23.75 16.0075009,23.75 C16.0283033,23.75 16.0490772,23.7499322 16.0698226,23.7497967 C16.325388,21.7082216 17.2029445,19.8615903 18.4996875,18.393125 L18.4996875,18.393125 L15.9899987,15.88375 Z M19.384173,19.276875 C18.3301513,20.4914356 17.6017615,21.9955161 17.3437825,23.6526278 C19.0386638,23.4017301 20.5094078,22.6755734 21.7229168,21.615328 Z M24.6373355,16.357061 L24.371853,16.4003904 C22.8220811,16.6925973 21.4159711,17.3976838 20.2680335,18.393125 L20.2680335,18.393125 L22.606575,20.7305253 C23.6595495,19.5168103 24.3801653,18.0139956 24.6373355,16.357061 Z M12.5970746,12.490625 C11.1296235,13.7861485 9.28405121,14.6632213 7.24482004,14.9210734 L7.24328041,15 C7.24384689,17.1874609 8.05194412,19.1860254 9.38377483,20.7226308 L15.1061383,15 Z M22.6020683,9.27342093 L16.8744843,15 L19.3835479,17.509375 C20.8519572,16.2130056 22.6989817,15.3356335 24.7397974,15.0784223 L24.7417177,15 C24.7411508,12.810665 23.9352685,10.8105503 22.6020683,9.27342093 Z M15.9912489,6.25 L15.9121917,6.25190778 C15.6549483,8.29238075 14.7774666,10.1386493 13.4809351,11.606875 L13.4809351,11.606875 L15.9899987,14.11625 L21.7177968,8.38924833 C20.1805891,7.05619498 18.1807924,6.25 15.9912489,6.25 L15.9912489,6.25 Z M9.38024461,9.27440781 C8.32905202,10.487016 7.60675823,11.9876426 7.34841752,13.6419369 C9.0019827,13.3846203 10.5010681,12.6574529 11.7125891,11.606875 L11.7125891,11.606875 Z M14.6350163,6.35659779 L14.4534013,6.38509519 C12.8694247,6.66680688 11.4331932,7.37610461 10.2643197,8.39010807 L12.5964496,10.723125 C13.6485541,9.5107736 14.3762103,8.01042744 14.6350163,6.35659779 Z" id="icon-sm-basketball"></path>
            </g>
        </g>
    </g>
</svg>