<?xml version="1.0" encoding="UTF-8"?>
<svg width="20px" height="20px" viewBox="0 0 20 20" version="1.1" xmlns="http://www.w3.org/2000/svg" xmlns:xlink="http://www.w3.org/1999/xlink">
    <!-- Generator: Sketch 61 (89581) - https://sketch.com -->
    <title>icon-sm-beach-volleyball</title>
    <desc>Created with Sketch.</desc>
    <g id="Web-app" stroke="none" stroke-width="1" fill="none" fill-rule="evenodd">
        <g id="Artboard" transform="translate(-192.000000, -5.000000)" fill="#FFFFFF">
            <g id="pointer-map-basketball-copy-2" transform="translate(186.000000, 0.000000)">
                <g id="Group-18" transform="translate(6.000000, 5.000000)">
                    <path d="M10.2744557,0.0230707919 C11.9138229,0.0224636658 13.5773695,0.441987802 15.0952349,1.32292777 C17.7416014,2.85766041 19.3935957,5.4667743 19.8199007,8.28669181 C19.8319819,8.33077528 19.8382262,8.37574897 19.8395083,8.42046759 C19.8994653,8.86014597 19.9299976,9.30453548 19.9299174,9.75044519 C19.9299174,11.3969712 19.5122172,13.0677822 18.6357119,14.5922758 C16.8458276,17.7056185 13.5876458,19.4486775 10.2448359,19.4474633 C9.04553483,19.4479074 7.83329328,19.2235036 6.67437874,18.758088 C6.6620411,18.753304 6.65042514,18.7484093 6.63900856,18.7431721 C6.22616906,18.5761191 5.81986689,18.3775862 5.42345218,18.1476063 C4.2451395,17.4641229 3.26395423,16.5675563 2.50036078,15.5341826 C2.4860473,15.5168859 2.47283532,15.4981979 2.46072379,15.4788549 C1.24111414,13.8049733 0.58900368,11.7787318 0.589374262,9.72008888 C0.589374262,8.0735629 1.00707438,6.40275187 1.88357969,4.87825822 C2.51659307,3.77718843 3.33325601,2.84758491 4.27236223,2.10591043 C4.28108547,2.09792059 4.29021307,2.09089462 4.29950572,2.08415576 C5.69749716,0.988609723 7.36410612,0.307405463 9.09899885,0.0947991741 C9.13974236,0.0848287767 9.18181571,0.080018699 9.2238425,0.0795950965 C9.57203261,0.0422353377 9.92277583,0.0230069192 10.2744557,0.0230707919 Z M15.270536,9.8973697 C15.3158725,10.240396 15.3394475,10.5864578 15.3394475,10.9343411 C15.3400519,12.2736613 14.9991216,13.6330166 14.2858276,14.8739824 C13.3811914,16.4470295 12.0180018,17.5900057 10.4641208,18.2296049 C13.3147668,18.155925 16.0621285,16.6408606 17.5887414,13.9851497 C17.7204051,13.7559708 17.8401916,13.5232381 17.9483052,13.2876409 C17.6447069,11.7441587 16.5986344,10.5248109 15.270536,9.8973697 Z M13.2243495,9.43291824 C12.4379126,9.43352536 11.6387816,9.64419812 10.8741063,10.0837574 C10.8747107,11.6853561 10.2581346,13.0914601 9.29700118,14.135717 C9.2873294,14.1490738 9.27463518,14.1587878 9.26314994,14.1709303 C9.18698465,14.2528924 9.11384179,14.3366758 9.0334451,14.4137808 C7.91937662,15.4798942 6.41964581,16.1082697 4.84737662,16.109484 C4.78371753,16.109484 4.71994144,16.1084417 4.65607402,16.1063455 C5.07084547,16.4742217 5.52918898,16.8069641 6.02793861,17.0960639 C6.35526888,17.2858248 6.68983711,17.4510234 7.02962967,17.5922645 C7.17798251,17.6022501 7.32583208,17.6072641 7.47326564,17.6072641 C9.772732,17.6066569 12.0069138,16.4100114 13.2388571,14.2668563 C13.8439481,13.2134925 14.1304746,12.0678455 14.1304746,10.9343411 C14.1304746,10.4480331 14.0633766,9.96718921 13.959405,9.49423797 C13.7170059,9.45598903 13.4715844,9.43291824 13.2243495,9.43291824 Z M2.83434167,5.65811605 L2.76041985,5.79595959 C2.10850229,7.04626242 1.79890509,8.38964208 1.79834711,9.72008888 C1.79870798,11.4764899 2.33958655,13.2043297 3.35243436,14.6461718 C3.84827593,14.8160532 4.35100461,14.8946857 4.84737662,14.8952318 C5.84296576,14.8958389 6.8119575,14.5698122 7.6177379,14.0051849 C6.07387957,13.3640597 4.7149941,12.2323767 3.8155183,10.6678127 C3.10222432,9.42684698 2.76129398,8.06688451 2.76189847,6.72817146 C2.76189847,6.36927962 2.78626687,6.01176278 2.83434167,5.65811605 Z M7.56830033,1.68243116 L7.41673497,1.7337048 C6.5905484,2.02902916 5.8080064,2.45284602 5.10206127,2.99630428 C4.36341455,4.09917685 3.97028013,5.40409289 3.97087131,6.72817146 C3.97087131,7.86167589 4.25739787,9.00732284 4.86248878,10.0606866 C5.72750885,11.5639309 7.08397639,12.5924025 8.61090909,13.0793176 C9.260732,12.2754826 9.66331995,11.2573322 9.66513341,10.0855788 C7.70357497,8.95086011 6.66264935,6.94916536 6.66688076,4.94018509 C6.66570787,3.81361694 6.96012999,2.67409655 7.56830033,1.68243116 Z M12.6772893,4.87825822 C10.9466446,4.87886535 9.38042031,5.54609694 8.1962314,6.63345978 C8.56194569,7.5921119 9.24985124,8.44208844 10.2545077,9.02857225 C11.2065738,8.47669463 12.2293648,8.21805891 13.2243495,8.21866603 C13.6692515,8.21866603 14.1081086,8.27512876 14.5354805,8.37226894 C14.5487792,8.37348319 14.5602645,8.3783402 14.5729587,8.3807687 C16.2491317,8.77194629 17.7271333,9.87190519 18.5542963,11.426267 C18.6658177,10.8709329 18.72071,10.3095016 18.7209445,9.75044519 C18.7207872,9.36759717 18.6949691,8.98610616 18.6441949,8.60863826 C17.5600005,6.39822395 15.2966369,4.87765923 12.6772893,4.87825822 Z M10.2744557,1.23732299 C10.0068298,1.23737847 9.73986507,1.25015361 9.47448085,1.27540148 C8.39873853,2.22716338 7.87701386,3.57500687 7.8758536,4.94018509 C7.8758536,5.06100318 7.89096576,5.18060702 7.90003306,5.30081799 C9.2250673,4.27902476 10.8795466,3.66400602 12.6772893,3.66400602 C14.4879586,3.66435656 16.1561619,4.27956097 17.4851613,5.31307391 C16.7726018,4.13334323 15.7632658,3.11191925 14.4907485,2.37447018 C13.1602739,1.60281291 11.7095065,1.23732299 10.2744557,1.23732299 Z" id="icon-sm-beach-volleyball"></path>
                </g>
            </g>
        </g>
    </g>
</svg>