<?xml version="1.0" encoding="UTF-8"?>
<svg width="20px" height="20px" viewBox="0 0 20 20" version="1.1" xmlns="http://www.w3.org/2000/svg" xmlns:xlink="http://www.w3.org/1999/xlink">
    <!-- Generator: Sketch 61 (89581) - https://sketch.com -->
    <title>icon-sm-gym-fitness</title>
    <desc>Created with Sketch.</desc>
    <g id="Web-app" stroke="none" stroke-width="1" fill="none" fill-rule="evenodd">
        <g id="Artboard" transform="translate(-316.000000, -5.000000)" fill="#FFFFFF">
            <path d="M328.483561,5.00000154 C328.975557,4.999381 329.475619,5.18616347 329.852837,5.56345166 L329.852837,5.56345166 L331.328206,7.03971578 L331.50999,6.85789762 C331.871698,6.4955024 332.351906,6.31182262 332.82591,6.31244316 C333.300534,6.31182262 333.780743,6.4955024 334.14245,6.85789762 C334.504778,7.21967231 334.688423,7.6999701 334.687182,8.17406249 C334.688423,8.64815487 334.504778,9.12845266 334.14245,9.49022735 L334.14245,9.49022735 L333.960666,9.6720455 L335.436034,11.1483096 C335.813252,11.5255978 336,12.0257529 336,12.5178409 C336,13.0099289 335.813252,13.510084 335.436655,13.8873722 C335.261695,14.0623644 335.058196,14.1920572 334.843529,14.2851382 C334.854986,14.2933903 334.862916,14.303146 334.870506,14.313078 C335.208537,14.68287 335.379576,15.1540645 335.379576,15.6205398 C335.379576,16.1126278 335.192828,16.6127829 334.816231,16.9900711 C334.439013,17.3673592 333.938951,17.5541417 333.446955,17.5535212 C332.954338,17.5541417 332.454276,17.3673592 332.077058,16.9900711 L332.077058,16.9900711 L329.364563,14.2764506 L325.27845,18.3633256 L327.991565,21.076946 C328.368162,21.4542342 328.55491,21.9543892 328.55491,22.4464773 C328.55491,22.9385653 328.368162,23.4387204 327.991565,23.8160086 C327.614347,24.1932968 327.114285,24.3800792 326.622289,24.3794587 C326.143321,24.3800792 325.660011,24.2001227 325.287136,23.8439329 L325.325,23.877 L325.286694,23.8449455 C325.216493,24.0056102 325.126128,24.1596565 325.011958,24.3003205 L324.889444,24.4365483 C324.512226,24.8138365 324.012164,25.000619 323.520168,24.9999985 C323.027551,25.000619 322.527489,24.8138365 322.150271,24.4365483 L322.150271,24.4365483 L320.682347,22.9683512 L320.498081,23.1551337 L320.516074,23.1551337 C320.154366,23.5175289 319.710143,23.7012087 319.235518,23.7005882 C318.832243,23.7012087 318.478601,23.5603462 318.159082,23.2978579 C318.034377,23.2668309 317.912153,23.2196698 317.847629,23.1551337 C317.485302,22.793359 317.302276,22.3130612 317.302897,21.8389688 C317.302276,21.3642559 317.485302,20.8845787 317.847629,20.522804 L317.847629,20.522804 L317.84825,20.522804 L318.042,20.328 L316.566453,18.8516904 L316.566453,18.8516904 L316.446657,18.7207395 C316.146334,18.3604144 315.998903,17.915158 316.000006,17.4821591 C315.998765,16.9950354 316.185513,16.4923982 316.566453,16.1126278 C316.741413,15.9376356 316.944292,15.8079428 317.158959,15.7148618 C316.799112,15.3388147 316.619189,14.8529321 316.62043,14.3794602 C316.619189,13.8923365 316.805937,13.3896993 317.186878,13.0099289 C317.564095,12.6326408 318.064157,12.4458583 318.556774,12.4464788 C319.048771,12.4458583 319.548832,12.6326408 319.92605,13.0099289 L319.92605,13.0099289 L322.650953,15.7359602 L326.737067,11.6490852 L324.011544,8.92305399 C323.630603,8.54328365 323.443855,8.04064643 323.445096,7.55352271 C323.443855,7.06639899 323.630603,6.56376177 324.011544,6.18399143 C324.388761,5.80670325 324.888823,5.61992078 325.38144,5.62054132 C325.859167,5.61992078 326.341857,5.79987731 326.714732,6.15482606 L326.694,6.137 L326.715177,6.15381285 C326.785377,5.99407637 326.875742,5.84026419 326.990433,5.69966014 L327.113664,5.56345166 C327.490882,5.18616347 327.990944,4.999381 328.483561,5.00000154 Z M317.93635,16.7902572 C317.752084,16.7908778 317.575884,16.8585166 317.444354,16.9900711 C317.304138,17.1315541 317.242716,17.2990999 317.240855,17.4821591 C317.242716,17.6652183 317.304138,17.8327641 317.444354,17.9742471 L317.444354,17.9742471 L323.028171,23.5591051 C323.159701,23.6906595 323.335902,23.7582984 323.520168,23.7589189 C323.703813,23.7582984 323.880014,23.6906595 324.011544,23.5591051 C324.143694,23.4275507 324.21132,23.2513174 324.211941,23.0670171 C324.21132,22.8827167 324.143694,22.7064835 324.011544,22.574929 L324.016,22.58 L318.427726,16.9900711 L318.343745,16.9188331 C318.225418,16.8341418 318.083266,16.7907537 317.93635,16.7902572 Z M323.960988,18.8011229 L321.529847,16.3695313 C321.529534,16.3692186 321.529222,16.3689057 321.52891,16.3685925 L319.04815,13.8873722 C318.91662,13.7558178 318.74042,13.6881789 318.556774,13.6875584 C318.372508,13.6881789 318.196308,13.7558178 318.064778,13.8873722 C317.924562,14.0288553 317.86314,14.196401 317.861279,14.3794602 C317.86314,14.5625195 317.924562,14.7300652 318.064778,14.8715483 L318.064778,14.8715483 L324.889444,21.6974858 L326.130292,22.9385653 C326.261822,23.0701198 326.438023,23.1377586 326.622289,23.1383791 C326.805934,23.1377586 326.982135,23.0701198 327.113664,22.9385653 C327.245815,22.8070109 327.313441,22.6307776 327.314061,22.4464773 C327.313441,22.262177 327.245815,22.0859437 327.113664,21.9543892 L327.113664,21.9543892 L323.960988,18.8011229 L323.960988,18.8011229 Z M318.916,21.2097415 L318.734216,21.3915597 L318.742901,21.4002472 L318.760894,21.4002472 C318.63867,21.5231141 318.615714,21.678249 318.615094,21.8389688 C318.615714,21.9996887 318.746624,22.1548236 318.868848,22.2776905 L318.868848,22.2776905 L318.824177,22.3434677 C318.928408,22.4135887 319.041946,22.4588881 319.164169,22.4595086 C319.324859,22.4588881 319.479965,22.3999368 319.602809,22.2776905 L319.602809,22.2776905 L319.79328,22.0871848 L318.916,21.2097415 Z M327.614,12.526 L323.528,16.613 L324.4,17.485 L328.487,13.399 L327.614,12.526 Z M332.696553,13.8864404 L327.113664,8.30251422 L325.872816,7.06143467 L325.872816,7.06143467 L325.788835,6.9901967 C325.670508,6.90550544 325.528357,6.8621173 325.38144,6.86162086 C325.197174,6.8622414 325.020974,6.92988024 324.889444,7.06143467 C324.749228,7.20291774 324.687806,7.37046348 324.685945,7.55352271 C324.687806,7.73658194 324.749228,7.90412768 324.889444,8.04561075 L324.889444,8.04561075 L327.366,10.523 L327.371141,10.5277698 L329.803203,12.9602858 L332.954958,16.1126278 C333.086488,16.2441822 333.262689,16.3118211 333.446955,16.3124416 C333.6306,16.3118211 333.806801,16.2441822 333.93833,16.1126278 C334.070481,15.9810734 334.138107,15.8048401 334.138727,15.6205398 C334.138107,15.4362395 334.070481,15.2600062 333.93833,15.1284517 L333.93833,15.1284517 L332.696553,13.8864404 L332.696553,13.8864404 Z M328.483561,6.24108109 C328.299295,6.24170163 328.123095,6.30934046 327.991565,6.4408949 C327.851349,6.58237796 327.789927,6.7499237 327.788066,6.93298294 C327.789927,7.11604217 327.851349,7.28358791 327.991565,7.42507098 L327.987,7.42 L333.574,13.009 C333.680606,13.1151725 333.814419,13.1795101 333.95808,13.2013531 L334.067379,13.2097428 C334.251024,13.2091222 334.427225,13.1414834 334.558755,13.0099289 C334.690905,12.8783745 334.758531,12.7021412 334.759152,12.5178409 C334.758531,12.3335406 334.690905,12.1573073 334.558755,12.0257529 L334.558755,12.0257529 L333.657,11.124 L328.974937,6.4408949 L328.974937,6.4408949 L328.890956,6.36965693 C328.772629,6.28496566 328.630478,6.24157752 328.483561,6.24108109 Z M332.82591,7.55352271 C332.66522,7.55414325 332.510114,7.61309453 332.38727,7.73534087 L332.38727,7.73534087 L332.205,7.917 L333.083,8.794 L333.26517,8.61278411 C333.362949,8.51449061 333.41983,8.39554554 333.438988,8.26961072 L333.446334,8.17406249 C333.445714,8.01334268 333.387394,7.85820774 333.26517,7.73534087 L333.26517,7.73534087 C333.142326,7.61309453 332.98722,7.55414325 332.82591,7.55352271 Z" id="icon-sm-gym-fitness"></path>
        </g>
    </g>
</svg>