<?xml version="1.0" encoding="UTF-8"?>
<svg width="20px" height="20px" viewBox="0 0 20 20" version="1.1" xmlns="http://www.w3.org/2000/svg" xmlns:xlink="http://www.w3.org/1999/xlink">
    <!-- Generator: Sketch 61 (89581) - https://sketch.com -->
    <title>icon-sm-skate</title>
    <desc>Created with Sketch.</desc>
    <g id="Web-app" stroke="none" stroke-width="1" fill="none" fill-rule="evenodd">
        <g id="Artboard" transform="translate(-376.000000, -5.000000)" fill="#FFFFFF">
            <g id="pointer-map-basketball-copy-5" transform="translate(370.000000, 0.000000)">
                <path d="M20.9298093,5.00000064 C22.2132011,4.99936823 23.5016632,5.46419034 24.4865476,6.43241162 L24.4865476,6.43241162 L24.5144337,6.41027723 C25.5037545,7.39683844 26.0006332,8.79383439 25.9999994,10.0864825 C26.0006332,11.3791307 25.5037545,12.6800002 24.5144337,13.6659289 L24.5144337,13.6659289 L14.655449,23.5087742 C13.6673956,24.4953354 12.3656243,25.0006318 11.0701907,24.9999994 C9.78426377,25.0006318 8.49263283,24.5288532 7.50711463,23.5568374 L7.50711463,23.5568374 L7.48493254,23.5745449 C6.49624547,22.5886161 5.99936683,21.2156518 6.00000061,19.9230036 C5.99936683,18.6303555 6.49624547,17.3332805 7.48493254,16.3467193 L7.48493254,16.3467193 L7.93364437,16.7963635 L8.38172242,17.247905 C7.63767202,17.990988 7.26818191,18.9674306 7.26754814,19.9407112 C7.26818191,20.9139917 7.63767202,21.8999205 8.38172242,22.6423711 C8.40200319,22.6632406 8.41214357,22.696126 8.42988923,22.7214224 C9.1676019,23.4297228 10.1157275,23.7124105 11.0701907,23.7130429 C12.0455686,23.7124105 13.0152424,23.3411852 13.7592928,22.5987347 L13.756,22.601 L12.4150587,21.263715 C12.3202461,21.1691063 12.2582884,21.0461656 12.2372978,20.915292 L12.229363,20.815968 C12.229363,20.6496439 12.296543,20.4871143 12.4150587,20.3688534 L12.4150587,20.3688534 L12.8631367,19.9217388 L11.0701907,18.1332804 L10.6221127,18.580395 C10.5042308,18.6980235 10.3407171,18.7656915 10.1740346,18.7656915 C10.0073521,18.7656915 9.84383851,18.6980235 9.72595659,18.580395 L9.72595659,18.580395 L8.38172242,17.2390512 L7.93364437,16.7919366 L7.48493254,16.3384979 L17.344551,6.4943879 C18.3326044,5.5078267 19.6343757,4.99936823 20.9298093,5.00000064 Z M14.655449,19.9217388 L13.7592928,20.815968 L14.652,21.707 L15.548,20.812 L14.655449,19.9217388 Z M15.551,10.083 L11.07,14.555 L12.4150587,15.897075 C12.5093642,15.9911778 12.5712205,16.1144221 12.5925153,16.2451136 L12.6007544,16.3441896 C12.6007544,16.5111462 12.5329406,16.6736758 12.4150587,16.7913042 L12.4150587,16.7913042 L11.9669806,17.2390512 L13.7592928,19.0275096 L14.2073709,18.580395 C14.4551764,18.3331223 14.8563552,18.3331223 15.103527,18.580395 L15.103527,18.580395 L16.444,19.917 L20.923,15.444 L19.5849413,14.1086167 C19.3624867,13.8860712 19.3402413,13.5395606 19.5182049,13.2926831 L19.5849413,13.2143875 L20.0330194,12.7672729 L18.2407072,10.9781821 L17.7926291,11.4252967 C17.6747472,11.5429251 17.5112335,11.6105931 17.344551,11.6105931 C17.1772348,11.6105931 17.0143549,11.5429251 16.896473,11.4252967 L16.896473,11.4252967 L15.551,10.083 Z M10.1740346,15.4499605 L9.27787853,16.3441896 L10.1740346,17.2390512 L11.0701907,16.3441896 L10.1740346,15.4499605 Z M21.8259654,12.7672729 L20.9298093,13.6615021 L21.82,14.55 L22.716,13.655 L21.8259654,12.7672729 Z M20.9298093,6.28948673 C19.9544314,6.29011914 18.9847576,6.65881477 18.2407072,7.4006329 L18.2407072,7.4006329 L19.5849413,8.7426091 C19.7028232,8.86023755 19.770637,9.02276719 19.770637,9.1897237 C19.770637,9.3560478 19.7028232,9.51920984 19.5849413,9.63683829 L19.5849413,9.63683829 L19.1368633,10.0839529 L20.9298093,11.8724113 L21.3778873,11.4252967 C21.6250591,11.1786564 22.0262379,11.1786564 22.2740434,11.4252967 L22.2740434,11.4252967 L23.612,12.76 C24.3050933,12.0692857 24.6727571,11.1818746 24.7257553,10.2838935 L24.7324519,10.0592889 C24.7318181,9.0866407 24.362328,8.09502021 23.6182776,7.35256966 C23.5916591,7.3260084 23.5777161,7.28300445 23.5568015,7.24885426 C22.8209902,6.55067248 21.8785686,6.29011914 20.9298093,6.28948673 Z M17.344551,8.29486209 L16.4483949,9.1897237 L17.344551,10.0839529 L18.2407072,9.1897237 L17.344551,8.29486209 Z" id="icon-sm-skate"></path>
            </g>
        </g>
    </g>
</svg>