<?xml version="1.0" encoding="UTF-8"?>
<svg width="20px" height="20px" viewBox="0 0 20 20" version="1.1" xmlns="http://www.w3.org/2000/svg" xmlns:xlink="http://www.w3.org/1999/xlink">
    <!-- Generator: Sketch 61 (89581) - https://sketch.com -->
    <title>pointer-map-basketball copy 6</title>
    <desc>Created with Sketch.</desc>
    <g id="Web-app" stroke="none" stroke-width="1" fill="none" fill-rule="evenodd">
        <g id="Artboard" transform="translate(-438.000000, -5.000000)" fill="#FFFFFF">
            <g id="pointer-map-basketball-copy-6" transform="translate(438.000000, 5.000000)">
                <path d="M11.3020435,17.414398 C10.2582897,17.414398 9.21391357,17.2284238 8.22306322,16.8564754 C7.9884209,16.7687752 7.74693224,16.7252361 7.51291231,16.7252361 C7.05669793,16.7264801 6.63907193,16.8844649 6.31729453,17.2047883 L6.31729453,17.2047883 L4.24970354,19.2710298 C3.76548145,19.7555578 3.12441622,20.0006208 2.48957492,19.9999988 C1.85411122,20.0006208 1.21366838,19.7555578 0.728823895,19.2710298 C0.24397941,18.7871238 -0.000621208664,18.1464769 1.18476928e-06,17.51205 C-0.000621208664,16.877001 0.24397941,16.2369762 0.728823895,15.7524481 L0.728823895,15.7524481 L2.73853229,13.7440514 C3.08333825,13.3988485 3.25200687,12.9497738 3.25387405,12.4596478 C3.25387405,12.2127189 3.20906172,11.9577042 3.11819228,11.7095313 C2.76405042,10.7410972 2.58666829,9.72290411 2.58666829,8.70471104 C2.58417872,6.00901846 3.8370567,3.30150812 6.32538564,1.55559002 C7.80232526,0.518737335 9.5518732,1.95399252e-14 11.2989316,1.95399252e-14 C12.9750371,1.95399252e-14 14.6542546,0.477686179 16.0926058,1.44238835 C18.7384003,3.2150519 20.0037261,6.05255757 19.9999918,8.84217021 C19.9999918,11.0377851 19.1124587,13.2147403 17.4525354,14.8729582 L17.4525354,14.8729582 L17.2180777,15.0988319 C15.5543615,16.6431891 13.425367,17.4155854 11.3020435,17.414398 Z M4.32168979,11.380265 C4.43871649,11.7317699 4.49866092,12.0964902 4.49866092,12.4596478 C4.5005281,13.2433517 4.21298233,14.0320315 3.619219,14.6235414 L3.619219,14.6235414 L1.6095106,16.6319381 C1.36490998,16.877001 1.24541044,17.1917266 1.24478805,17.51205 C1.24541044,17.8323734 1.36490998,18.1470989 1.6095106,18.3915399 C1.85411122,18.6353589 2.1690423,18.7554024 2.48957492,18.7560244 C2.81010753,18.7554024 3.12503861,18.6353589 3.36963923,18.3915399 L3.36963923,18.3915399 L5.43723021,16.3252984 C6.00485303,15.7561801 6.76106105,15.4793958 7.51291231,15.4812617 C7.90066342,15.4812617 8.28965932,15.5527902 8.6612282,15.6921154 L8.62,15.678 Z M11.2989316,1.24397443 C9.79709621,1.24397443 8.29712804,1.69056124 7.04176049,2.5731611 C4.89325835,4.08334605 3.83394473,6.3865647 3.83145516,8.70471104 C3.83145516,8.85236405 3.83579051,9.00001706 3.8444642,9.14746007 L10.8581799,16.1573876 C11.0059791,16.1660792 11.1540028,16.1704236 11.3020435,16.1704236 C13.2134138,16.1698016 15.1179377,15.4464304 16.5724711,13.9934683 C18.0033536,12.5628977 18.7552049,10.702534 18.7552049,8.84217021 C18.7514705,6.4157981 17.6765971,4.00497566 15.3986371,2.47488712 C14.1762564,1.65510797 12.73915,1.24397443 11.2989316,1.24397443 Z M10.6466632,2.51780424 C12.3650915,2.51904821 13.758008,3.91105559 13.7586304,5.6277403 C13.758008,7.34442501 12.3650915,8.73643239 10.6466632,8.73767636 C8.92885737,8.73643239 7.53594087,7.34442501 7.53469608,5.6277403 C7.53594087,3.91105559 8.92885737,2.51904821 10.6466632,2.51780424 Z M10.6466632,3.76177866 C9.6184693,3.76364462 8.78135013,4.60021742 8.77948295,5.6277403 C8.78135013,6.65526317 9.6184693,7.49183597 10.6466632,7.49370194 C11.6748572,7.49183597 12.5119764,6.65526317 12.5138435,5.6277403 C12.5119764,4.60021742 11.6748572,3.76364462 10.6466632,3.76177866 Z" id="icon-sm-tabletennis"></path>
            </g>
        </g>
    </g>
</svg>