<?xml version="1.0" encoding="UTF-8"?>
<svg width="146px" height="48px" viewBox="0 0 146 48" version="1.1" xmlns="http://www.w3.org/2000/svg" xmlns:xlink="http://www.w3.org/1999/xlink">
    <!-- Generator: Sketch 56.2 (81672) - https://sketch.com -->
    <title>Appstore</title>
    <desc>Created with Sketch.</desc>
    <g id="Landing-page" stroke="none" stroke-width="1" fill="none" fill-rule="evenodd">
        <g id="1024---Desktop---SportySpots-home" transform="translate(-275.000000, -1277.000000)">
            <g id="Section-4" transform="translate(0.000000, 1007.000000)">
                <g id="Appstore" transform="translate(275.000000, 270.000000)">
                    <rect id="backfround-copy" fill="#000000" x="0" y="0" width="146" height="48" rx="4"></rect>
                    <path d="M55.7743697,30.1201104 L58.2282453,30.1201104 L52.856526,15.358054 L50.3717192,15.358054 L45,30.1201104 L47.3713924,30.1201104 L48.7426758,26.2019762 L54.4133967,26.2019762 L55.7743697,30.1201104 Z M51.495553,18.0383442 L51.6708298,18.0383442 L53.8257038,24.2787146 L49.3303687,24.2787146 L51.495553,18.0383442 Z M64.7347371,18.7953728 C63.2087977,18.7953728 61.8890663,19.5524013 61.2085798,20.8209356 L61.0436134,20.8209356 L61.0436134,18.9795148 L58.9093602,18.9795148 L58.9093602,33.7313411 L61.1260966,33.7313411 L61.1260966,28.4321414 L61.3013734,28.4321414 C61.8890663,29.6086046 63.1572457,30.3042525 64.7553579,30.3042525 C67.5907184,30.3042525 69.3950387,28.0843174 69.3950387,24.5446976 C69.3950387,21.0050777 67.5907184,18.7953728 64.7347371,18.7953728 L64.7347371,18.7953728 Z M64.1058026,28.3298402 C62.2499304,28.3298402 61.084855,26.8771638 61.084855,24.5549277 C61.084855,22.2224614 62.2499304,20.769785 64.1161131,20.769785 C65.9926061,20.769785 67.1164399,22.191771 67.1164399,24.5446976 C67.1164399,26.9078542 65.9926061,28.3298402 64.1058026,28.3298402 L64.1058026,28.3298402 Z M76.2314634,18.7953728 C74.705524,18.7953728 73.3857926,19.5524013 72.7053061,20.8209356 L72.5403396,20.8209356 L72.5403396,18.9795148 L70.4060865,18.9795148 L70.4060865,33.7313411 L72.6228229,33.7313411 L72.6228229,28.4321414 L72.7980997,28.4321414 C73.3857926,29.6086046 74.653972,30.3042525 76.2520842,30.3042525 C79.0874447,30.3042525 80.8917649,28.0843174 80.8917649,24.5446976 C80.8917649,21.0050777 79.0874447,18.7953728 76.2314634,18.7953728 L76.2314634,18.7953728 Z M75.6025289,28.3298402 C73.7466566,28.3298402 72.5815812,26.8771638 72.5815812,24.5549277 C72.5815812,22.2224614 73.7466566,20.769785 75.6128393,20.769785 C77.4893324,20.769785 78.6131662,22.191771 78.6131662,24.5446976 C78.6131662,26.9078542 77.4893324,28.3298402 75.6025289,28.3298402 L75.6025289,28.3298402 Z M85.5842546,26.1508257 C85.7492211,28.7901954 87.9659574,30.4781644 91.2652859,30.4781644 C94.7914433,30.4781644 96.9978692,28.7083545 96.9978692,25.8848427 C96.9978692,23.6649076 95.7400002,22.4372938 92.6881213,21.7314159 L91.0487675,21.3324414 C89.110412,20.8823163 88.3268215,20.2787395 88.3268215,19.2250376 C88.3268215,17.8951226 89.5434488,17.0255628 91.3683899,17.0255628 C93.1005374,17.0255628 94.296544,17.8746624 94.5130624,19.2352677 L96.76073,19.2352677 C96.6266947,16.7493497 94.4202688,15 91.3993211,15 C88.1515446,15 85.9863603,16.7493497 85.9863603,19.3784893 C85.9863603,21.5472738 87.2132981,22.8362683 89.9043129,23.4603053 L91.8220476,23.9206605 C93.7913343,24.3810157 94.657408,25.0562033 94.657408,26.181516 C94.657408,27.4909708 93.296435,28.4423715 91.4405627,28.4423715 C89.4506552,28.4423715 88.0690614,27.5523515 87.8731638,26.1508257 L85.5842546,26.1508257 Z M98.905922,16.2787644 L98.905922,19.0306654 L97.0603601,19.0306654 L97.0603601,20.8823163 L98.905922,20.8823163 L98.905922,27.1738372 C98.905922,29.3221614 99.8854101,30.1814911 102.349596,30.1814911 C102.782633,30.1814911 103.184739,30.1303405 103.535292,30.0689598 L103.535292,28.2377692 C103.22598,28.2684595 103.050703,28.2889198 102.71046,28.2889198 C101.607247,28.2889198 101.122658,27.777414 101.122658,26.6111808 L101.122658,20.8823163 L103.638396,20.8823163 L103.638396,19.0306654 L101.122658,19.0306654 L101.122658,16.2787644 L98.905922,16.2787644 Z M109.134469,28.3809908 C107.206424,28.3809908 106.123832,26.979465 106.123832,24.5446976 C106.123832,22.1303904 107.206424,20.7186344 109.134469,20.7186344 C111.052204,20.7186344 112.145106,22.1303904 112.145106,24.5446976 C112.145106,26.9692349 111.052204,28.3809908 109.134469,28.3809908 L109.134469,28.3809908 Z M109.134469,30.3349428 C112.413177,30.3349428 114.423705,28.1559283 114.423705,24.5446976 C114.423705,20.9539271 112.402866,18.7646824 109.134469,18.7646824 C105.855761,18.7646824 103.834922,20.9539271 103.834922,24.5446976 C103.834922,28.1559283 105.845451,30.3349428 109.134469,30.3349428 L109.134469,30.3349428 Z M115.434753,30.1201104 L117.651489,30.1201104 L117.651489,23.5421463 C117.651489,21.9769386 118.837185,20.9232367 120.50747,20.9232367 C120.878645,20.9232367 121.559131,20.9948476 121.734408,21.0562282 L121.734408,18.8874438 C121.497269,18.8260631 121.074542,18.7953728 120.75492,18.7953728 C119.290843,18.7953728 118.053595,19.5933218 117.733972,20.6879441 L117.569006,20.6879441 L117.569006,18.9795148 L115.434753,18.9795148 L115.434753,30.1201104 Z M126.725271,20.6367935 C128.364625,20.6367935 129.436907,21.7723363 129.488459,23.521686 L123.817738,23.521686 C123.941463,21.7825664 125.085917,20.6367935 126.725271,20.6367935 L126.725271,20.6367935 Z M129.478148,27.1124565 C129.065732,27.9820163 128.148106,28.4628317 126.807754,28.4628317 C125.034365,28.4628317 123.889911,27.2249878 123.817738,25.2710357 L123.817738,25.1482744 L131.746437,25.1482744 L131.746437,24.3810157 C131.746437,20.8823163 129.859633,18.7646824 126.735581,18.7646824 C123.570288,18.7646824 121.55976,21.0255379 121.55976,24.585618 C121.55976,28.1456981 123.529046,30.3349428 126.745892,30.3349428 C129.313182,30.3349428 131.107192,29.107329 131.612401,27.1124565 L129.478148,27.1124565 Z" id="App-Store" fill="#FFFFFF"></path>
                    <g id="logo_apple" transform="translate(13.000000, 10.000000)" fill="#FFFFFF">
                        <path d="M19.4406005,15.0204916 C19.4082421,11.4522527 22.3852124,9.71629278 22.5213407,9.63547322 C20.8353579,7.19649387 18.2221404,6.86325157 17.303832,6.83668076 C15.1090417,6.60750748 12.9800839,8.13975778 11.8620463,8.13975778 C10.7216927,8.13975778 9.00000405,6.8588231 7.14441872,6.89646509 C4.75659396,6.93299996 2.52275041,8.30471826 1.29759546,10.4348119 C-1.23082086,14.7780329 0.654891225,21.160564 3.07730598,24.6712329 C4.28907126,26.3916931 5.70502903,28.3103273 7.55838274,28.2427932 C9.37156743,28.1697234 10.0488617,27.0958197 12.2369572,27.0958197 C14.4049681,27.0958197 15.0409775,28.2427932 16.9311529,28.1985085 C18.8771185,28.1697234 20.1022734,26.4725127 21.2716381,24.7365528 C22.6719746,22.7680983 23.2343408,20.8251075 23.2566569,20.7254669 C23.2120246,20.7110744 19.4785379,19.2972856 19.4406005,15.0204916" id="Fill-2"></path>
                        <path d="M15.8700214,4.52723413 C16.8452358,3.31715496 17.5124878,1.67087158 17.327264,0.000231617628 C15.9157694,0.0622301847 14.1505644,0.968959229 13.1340652,2.15246759 C12.2347255,3.19537206 11.4313452,4.90476112 11.6388852,6.5122954 C13.2244454,6.62964983 14.8524063,5.71849232 15.8700214,4.52723413" id="Fill-3"></path>
                    </g>
                </g>
            </g>
        </g>
    </g>
</svg>